<svg width="1228" height="1639" viewBox="0 0 1228 1639" fill="none" xmlns="http://www.w3.org/2000/svg">
<g clip-path="url(#clip0_173_164)">
<path d="M1194.9 820.155C1189.69 819.004 1184.48 817.877 1179.28 816.7C1154.76 811.145 1130.32 805.171 1105.68 800.149C1087.59 796.461 1069.3 793.679 1051.01 791.134C1039.3 789.505 1027.43 788.929 1015.63 788.093C1003.6 787.241 991.564 786.65 978.758 785.985C975.126 786.153 972.257 786.511 969.413 786.367C960.897 785.935 952.389 784.842 943.882 784.887C935.379 784.932 926.881 786.039 918.381 786.68C907.702 787.459 896.976 787.85 886.355 789.113C873.034 790.697 859.762 792.789 846.535 795.044C831.899 797.539 817.16 799.764 802.79 803.391C786.013 807.624 769.306 812.484 753.083 818.467C734.143 825.45 715.53 833.442 697.188 841.894C670.385 854.244 644.22 867.998 617.283 880.034C590.021 892.214 562.367 903.597 534.472 914.25C515.534 921.482 496.089 927.617 476.498 932.841C456.67 938.127 436.464 942.135 416.268 945.855C401.316 948.61 386.149 950.342 371.014 951.911C356.77 953.387 342.442 954.052 327.222 954.919C306.776 954.814 287.258 954.865 267.741 954.916C254.886 954.307 242.026 953.794 229.178 953.055C219.967 952.526 210.754 951.893 201.578 950.945C191.81 949.937 182.075 948.579 172.345 947.236C162.784 945.916 153.213 944.619 143.708 942.959C128.893 940.373 114.087 937.702 99.3616 934.658C88.8215 932.479 78.404 929.692 67.9754 927.007C66.5545 926.641 64.7061 925.566 64.2142 924.351C61.3064 917.165 58.7408 909.841 56.26 901.841C56.2344 897.649 55.8182 894.18 55.8132 890.711C55.7727 862.176 55.7949 833.642 55.8623 805.107C55.8656 803.697 56.4651 802.287 56.787 800.877C65.5978 802.431 74.3913 804.091 83.2238 805.509C93.2004 807.111 103.203 808.558 113.211 809.954C123.228 811.352 133.26 812.65 143.298 813.895C147.369 814.401 151.469 814.908 155.562 814.973C181.803 815.385 208.055 816.203 234.286 815.801C249.526 815.567 264.796 813.78 279.941 811.831C295.977 809.767 311.964 807.096 327.822 803.935C346.114 800.288 364.379 796.337 382.399 791.553C399.863 786.916 417.185 781.577 434.234 775.592C454.059 768.632 473.619 760.881 493.107 753.011C509.738 746.294 526.114 738.943 542.587 731.836C560.616 724.057 578.539 716.02 596.678 708.507C609.406 703.235 622.373 698.525 635.316 693.792C651.227 687.975 667.17 682.237 683.209 676.786C690.214 674.405 697.505 672.873 704.63 670.83C705.793 670.497 706.769 669.513 708.632 668.962C711.88 668.61 714.334 668.151 716.778 667.641C737.805 663.255 758.733 658.308 779.875 654.568C851.204 641.949 923.033 637.734 995.355 642.857C1051.51 646.834 1106.8 655.938 1161.2 670.487C1172.29 673.454 1183.39 676.392 1194.59 679.774C1194.75 682.202 1194.86 684.198 1194.86 686.194C1194.88 730.847 1194.89 775.501 1194.9 820.155Z" fill="#369677"/>
<path d="M980.098 838.992C995.031 839.997 1009.97 840.985 1024.9 842.011C1034.08 842.642 1043.27 843.157 1052.43 844.038C1061.55 844.914 1070.65 846.007 1079.71 847.321C1091.66 849.053 1103.6 850.928 1115.49 853.044C1129.9 855.609 1144.27 858.451 1158.63 861.25C1165.95 862.674 1173.27 864.102 1180.51 865.843C1185.09 866.944 1189.6 868.435 1193.96 870.186C1195.01 870.606 1195.87 872.721 1195.97 874.116C1197.46 895.317 1192.23 915.201 1184.14 934.577C1174.69 957.224 1162.9 978.596 1149.23 998.913C1143.25 1007.8 1136.48 1016.14 1129.3 1024.86C1120.65 1023.81 1112.74 1022.67 1104.85 1021.43C1051.4 1012.99 997.838 1007.81 943.574 1011.69C871.777 1016.83 805.272 1037.68 744.906 1076.96C713.77 1097.23 683.348 1118.59 652.666 1139.55C608.072 1170.01 560.07 1193.09 507.338 1205.37C484.009 1210.8 460.27 1214.46 436.717 1218.93C431.521 1216.28 426.192 1213.85 421.15 1210.93C400.014 1198.69 377.916 1188.44 355.274 1179.41C342.114 1174.16 328.405 1170.29 315.246 1165.03C295.663 1157.22 276.147 1149.17 256.968 1140.42C231.07 1128.6 206.928 1113.54 184.992 1095.51C168.171 1081.69 152.264 1066.57 137.267 1050.78C124.366 1037.19 113.325 1021.84 101.477 1007.26C101.201 1006.92 101.109 1006.43 100.376 1004.69C157.346 1024.7 214.739 1037.74 274.659 1039.67C276.592 1038.97 278.167 1038.31 279.598 1038.54C283.183 1039.12 286.687 1040.72 290.252 1040.81C301.178 1041.1 312.12 1040.98 323.051 1040.74C325.319 1040.7 327.562 1039.49 329.821 1038.83C331.909 1038.23 334.348 1036.64 334.878 1040.58C339.779 1040.01 344.681 1039.45 349.58 1038.87C365.701 1036.95 381.906 1035.55 397.916 1032.95C414.439 1030.26 430.951 1027.09 447.139 1022.87C463.261 1018.66 479.095 1013.23 494.832 1007.71C510.074 1002.35 525.254 996.701 540.057 990.252C556.811 982.954 573.356 975.085 589.555 966.629C611.72 955.059 633.489 942.729 655.398 930.671C670.429 922.399 685.359 913.942 700.43 905.745C710.715 900.152 720.925 894.321 731.6 889.565C748.905 881.855 766.333 874.308 784.126 867.837C811.111 858.023 838.884 850.772 867.244 846.118C878.905 844.204 890.715 843.099 902.494 842.028C916.298 840.773 930.142 839.956 944.9 839.039C957.254 839.082 968.676 839.037 980.098 838.992Z" fill="#2B468E"/>
<path d="M436.861 1219.27C460.271 1214.46 484.01 1210.8 507.339 1205.37C560.07 1193.09 608.072 1170.01 652.666 1139.55C683.348 1118.59 713.77 1097.23 744.906 1076.96C805.273 1037.68 871.778 1016.83 943.574 1011.69C997.838 1007.81 1051.4 1012.99 1104.85 1021.43C1112.74 1022.67 1120.65 1023.81 1129.01 1025C1127.33 1027.84 1125.45 1030.92 1123 1033.47C1100.01 1057.42 1075.07 1079.12 1046.82 1096.67C1018.27 1114.41 988.376 1129.55 956.325 1140.09C939.001 1145.79 921.452 1150.87 904.367 1157.2C885.304 1164.27 866.469 1172.03 847.865 1180.24C820.291 1192.4 794.579 1208.01 769.925 1225.24C756.775 1234.42 744.429 1244.78 731.912 1254.85C724.402 1260.89 717.262 1267.39 709.431 1274.02C708.593 1274.6 708.28 1274.86 707.967 1275.11C707.967 1275.11 707.98 1274.98 707.811 1275.12C707.424 1275.54 707.207 1275.83 706.99 1276.12C706.99 1276.12 706.991 1275.99 706.815 1276.12C706.423 1276.54 706.208 1276.83 705.992 1277.12C705.992 1277.12 705.993 1276.99 705.814 1277.12C705.422 1277.54 705.208 1277.83 704.995 1278.12C704.995 1278.12 704.999 1278 704.803 1278.11C704.408 1278.52 704.209 1278.83 704.01 1279.13C704.01 1279.13 704.011 1279.01 703.804 1279.11C703.403 1279.51 703.209 1279.82 703.014 1280.13C703.014 1280.13 703.014 1280.01 702.803 1280.1C702.4 1280.51 702.209 1280.82 702.018 1281.13C702.018 1281.13 702.018 1281.02 701.802 1281.1C701.397 1281.5 701.209 1281.82 701.021 1282.13C701.021 1282.13 701.022 1282.02 700.797 1282.1C700.391 1282.49 700.211 1282.81 700.03 1283.13C700.03 1283.13 700.031 1283.03 699.795 1283.09C699.385 1283.48 699.21 1283.81 699.034 1284.13C699.034 1284.13 699.034 1284.03 698.796 1284.09C698.384 1284.47 698.21 1284.8 698.036 1285.13C698.036 1285.13 698.036 1285.04 697.796 1285.09C697.383 1285.47 697.21 1285.8 697.037 1286.13C697.037 1286.13 697.037 1286.04 696.793 1286.08C696.38 1286.47 696.211 1286.8 696.042 1287.14C696.042 1287.14 696.042 1287.04 695.792 1287.08C695.376 1287.46 695.21 1287.8 695.044 1288.13C695.044 1288.13 695.044 1288.04 694.792 1288.08C694.375 1288.46 694.21 1288.8 694.045 1289.13C694.045 1289.13 694.045 1289.04 693.792 1289.08C693.375 1289.46 693.21 1289.8 693.046 1290.14C693.046 1290.14 693.045 1290.05 692.791 1290.08C692.374 1290.45 692.211 1290.79 692.048 1291.13C692.048 1291.13 692.047 1291.05 691.792 1291.08C691.374 1291.45 691.21 1291.79 691.046 1292.13C691.046 1292.13 691.045 1292.04 690.793 1292.08C690.375 1292.46 690.21 1292.8 690.045 1293.13C690.045 1293.13 690.044 1293.04 689.794 1293.08C689.376 1293.46 689.21 1293.8 689.044 1294.13C689.044 1294.13 689.043 1294.04 688.792 1294.08C688.376 1294.46 688.21 1294.8 688.045 1295.13C688.045 1295.13 688.044 1295.04 687.794 1295.08C687.377 1295.46 687.209 1295.8 687.042 1296.13C687.042 1296.13 687.041 1296.04 686.795 1296.08C686.379 1296.46 686.21 1296.8 686.041 1297.13C686.041 1297.13 686.04 1297.04 685.795 1297.08C685.38 1297.47 685.21 1297.8 685.04 1298.13C685.04 1298.13 685.039 1298.04 684.795 1298.09C684.38 1298.47 684.21 1298.8 684.04 1299.13C684.04 1299.13 684.039 1299.04 683.796 1299.09C683.381 1299.47 683.209 1299.8 683.036 1300.13C683.036 1300.13 683.035 1300.03 682.798 1300.09C682.386 1300.48 682.209 1300.81 682.033 1301.13C682.033 1301.13 682.032 1301.03 681.801 1301.09C681.39 1301.48 681.208 1301.81 681.027 1302.13C681.027 1302.13 681.025 1302.02 680.803 1302.1C680.395 1302.49 680.209 1302.81 680.023 1303.13C680.023 1303.13 680.021 1303.02 679.805 1303.1C679.398 1303.5 679.207 1303.81 679.016 1304.13C679.016 1304.13 679.014 1304.01 678.809 1304.11C678.406 1304.51 678.208 1304.82 678.01 1305.13C678.01 1305.13 678.008 1305.01 677.812 1305.11C677.411 1305.52 677.207 1305.82 677.003 1306.12C677.003 1306.12 677.002 1306 676.811 1306.11C676.413 1306.53 676.207 1306.82 676.001 1307.12C676.001 1307.12 675.999 1307 675.814 1307.12C675.417 1307.53 675.206 1307.82 674.995 1308.12C674.995 1308.12 674.991 1307.99 674.823 1308.13C674.431 1308.55 674.208 1308.83 673.984 1309.11C673.984 1309.11 673.979 1308.98 673.829 1309.14C673.444 1309.56 673.209 1309.83 672.974 1310.1C672.974 1310.1 672.97 1309.97 672.832 1310.14C672.452 1310.57 672.21 1310.83 671.968 1311.09C671.968 1311.09 671.95 1310.96 671.841 1311.19C671.477 1311.72 671.223 1312.02 670.968 1312.31C664.394 1320.01 657.592 1327.53 651.294 1335.45C639.087 1350.81 627.156 1366.38 615.135 1381.88C613.655 1383.78 612.319 1385.8 610.505 1388.34C607.869 1385.11 605.306 1382.12 602.902 1379C593.608 1366.94 584.975 1354.31 574.962 1342.89C558.561 1324.18 541.723 1305.8 524.197 1288.14C513.294 1277.16 501.16 1267.29 488.904 1257.79C471.936 1244.64 454.335 1232.3 436.861 1219.27Z" fill="#69BEE1"/>
<path d="M288.035 624.53C290.266 623.195 292.497 621.86 294.552 620.629C293.852 618.476 293.191 616.443 292.347 613.849C299.479 614.126 300.074 608.675 301.775 605.34C300.153 603.462 298.726 601.809 297.23 600.076C302.536 596.974 307.029 594.347 311.922 591.486C305.754 587.224 297.332 593.482 291.728 586.45C302.042 581.097 314.46 585.301 323.626 577.416C312.599 573.868 301.586 570.325 290.573 566.782C290.68 566.136 290.788 565.49 290.896 564.844C304.247 560.55 319.339 561.585 332.09 551.957C325.79 551.957 320.516 552 315.242 551.943C310.866 551.896 310.983 551.755 312 547.453C312.265 546.332 310.746 544.789 310.054 543.455C312.997 542.295 316.182 541.039 318.816 540.001C316.11 538.935 311.763 538.515 311.041 536.674C309.45 532.613 314.404 532.991 316.585 531.501C320.147 529.069 323.831 526.816 327.819 524.26C326.373 523.758 325.23 523.554 324.306 522.99C323.142 522.28 321.83 521.443 321.255 520.317C321.027 519.871 322.574 518.474 323.369 517.558C325.261 515.377 327.187 513.224 328.684 511.53C325.969 509.206 323.751 507.308 320.905 504.872C323.497 503.942 324.719 503.476 325.959 503.063C328.824 502.108 330.349 500.688 330.008 497.121C329.656 493.43 329.432 489.918 333.469 486.645C335.695 484.84 335.717 478.646 334.763 474.938C332.757 467.146 337.454 460.695 337.002 453.392C337.597 453.294 338.191 453.195 338.786 453.097C340.48 458.885 342.178 464.672 343.867 470.462C344.293 471.921 344.639 473.407 345.132 474.843C345.276 475.261 346.141 475.813 346.106 475.857C342.093 480.968 352.85 484.696 347.479 490.083C347.021 490.542 348.141 492.779 348.769 494.073C350.208 497.038 351.37 499.906 347.732 502.438C349.096 503.965 349.961 505.769 351.316 506.284C354.632 507.544 358.023 509.131 357.099 512.972C356.535 515.316 353.502 517.066 351.718 518.936C352.082 520.003 352.634 521.622 353.187 523.24C350.187 523.913 347.187 524.586 343.282 525.462C342.939 529.061 346.641 529.209 349.492 529.895C355.208 531.268 361.008 532.297 366.694 533.774C367.831 534.07 368.614 535.727 369.56 536.757C368.332 537.863 367.272 539.501 365.838 539.956C363.399 540.729 360.725 540.758 358.149 541.1C358.164 541.586 358.178 542.073 358.193 542.56C362.008 543.147 365.824 543.735 369.971 544.373C370.001 547.035 374.674 550.664 369.094 552.65C366.188 553.685 362.611 552.833 359.337 552.833C359.173 553.362 359.009 553.891 358.846 554.42C360.172 555.25 361.441 556.676 362.835 556.811C370.997 557.604 377.611 561.569 383.832 566.467C385.325 567.643 386.789 568.858 388.267 570.054C386.01 571.043 383.836 572.423 381.477 572.918C378.68 573.506 375.723 573.331 372.99 574.579C375.223 576.05 377.456 577.521 379.689 578.992C379.581 579.418 379.473 579.844 379.365 580.269C378.084 580.552 376.802 580.834 375.165 581.195C375.55 582.877 376.014 584.906 376.82 588.425C373.098 587.911 369.942 587.474 366.311 586.835C365.599 586.555 365.362 586.478 365.124 586.401C365.307 586.727 365.49 587.052 365.673 587.378C369.177 589.564 372.554 592.004 376.229 593.851C378.853 595.17 381.877 595.694 384.722 596.572C384.654 597.148 384.586 597.724 384.518 598.301C382.215 598.659 379.912 599.018 377.281 599.428C377.91 601.976 382.819 605.168 376.14 607.073C376.243 607.495 376.346 607.917 376.45 608.339C383.369 609.834 390.288 611.329 398.456 613.094C395.622 616.849 393.108 620.182 390.058 624.224C390.453 624.744 391.65 626.004 392.466 627.475C393.511 629.356 394.25 631.408 395.12 633.386C393.15 633.917 391.199 634.796 389.206 634.907C384.952 635.142 380.675 634.979 376.694 634.979C382.217 643.522 392.396 641.329 400.733 643.898C402.57 644.465 404.335 645.267 406.132 645.961C405.187 647.685 404.377 649.506 403.246 651.099C402.529 652.109 401.334 652.781 400.299 653.65C402.664 655.38 404.816 656.881 406.879 658.494C408.02 659.386 409.011 660.467 410.07 661.462C408.411 662.304 406.783 663.789 405.087 663.871C398.993 664.166 392.877 663.987 386.264 663.987C385.627 667.234 383.08 667.322 379.406 666.246C376.094 665.276 372.493 665.297 368.825 666.035C372.42 668.255 376.014 670.475 380.002 672.938C379.871 673.419 379.665 674.523 379.267 675.553C378.154 678.439 379.039 680.348 382.168 679.897C387.275 679.162 391.839 678.677 397.019 681.232C399.96 682.684 404.826 680.446 408.765 679.593C411.622 678.974 414.337 677.685 417.2 677.12C418.665 676.83 420.89 676.946 421.717 677.847C422.51 678.71 422.356 680.963 421.892 682.366C420.193 687.505 417.39 690.781 411.919 693.665C405.784 696.9 399.644 696.273 393.258 697.483C398.099 703.446 405.766 707.635 413.288 703.962C416.801 702.246 420.937 701.851 424.591 700.365C427.751 699.081 430.627 697.1 434.168 695.356C442.44 698.904 450.168 702.536 457.912 706.132C459.232 706.745 461.623 706.461 460.113 709.118C439.11 716.418 418.201 724.01 397.068 730.91C383.902 735.209 370.526 739.05 357.012 742.05C335.451 746.837 313.779 751.254 291.994 754.864C276.75 757.39 261.249 758.415 245.843 759.901C238.932 760.568 231.973 760.721 224.104 760.986C205.735 760.9 188.296 760.935 170.857 760.971C159.752 760.217 148.641 759.538 137.544 758.687C126.969 757.875 116.362 757.244 105.854 755.874C94.1131 754.344 82.4609 752.119 70.7863 750.103C66.0393 749.283 61.3349 748.216 56.3631 746.663C56.0669 723.365 55.957 700.665 56.0982 677.966C56.1085 676.31 57.9374 674.666 58.9208 673.016C61.4592 672.467 63.9978 671.919 67.2149 671.224C62.4834 662.682 59.9518 653.922 61.1984 644.037C62.5186 645.531 63.8388 647.026 65.3647 648.753C66.3105 647.552 67.1784 646.45 67.896 645.539C71.3266 650.926 74.7898 656.363 78.2948 661.867C82.4619 658.342 82.0602 655.856 76.7648 650.301C78.5625 649.723 80.2341 649.186 81.9401 648.637C74.5638 635.359 74.5638 635.359 76.0408 630.753C78.001 632.472 79.7092 633.97 82.7155 636.607C83.8784 628.473 84.7352 621.225 86.0472 614.06C86.4458 611.884 88.1008 609.937 89.1804 607.885C89.5882 607.974 89.9959 608.063 90.4036 608.152C90.5868 612.079 90.5137 616.044 91.0863 619.914C91.299 621.352 93.0279 622.563 94.0588 623.883C95.0282 625.123 97.0814 626.91 96.7765 627.528C94.781 631.568 97.4693 633.551 99.7295 635.914C100.358 636.57 100.53 637.663 100.87 638.458C103.414 635.684 105.903 632.97 108.434 630.209C107.144 626.703 105.585 622.464 104.228 618.772C107.601 616.056 109.943 614.17 112.657 611.985C114.525 611.641 114.603 621.753 118.974 613.08C121.614 619.656 124.151 625.979 126.689 632.301C127.122 632.129 127.555 631.956 127.988 631.784C128.866 624.505 130.028 617.319 126.647 610.152C125.485 607.688 126.074 604.397 125.803 600.663C130.069 602.801 130.507 609.477 136.834 607.582C137.438 608.233 138.529 609.411 139.62 610.589C140.119 610.606 140.619 610.624 141.119 610.642C141.78 605.444 142.37 600.236 143.164 595.059C143.322 594.029 144.366 592.256 144.832 592.309C146.603 592.511 148.304 593.322 151.174 594.291C151.715 591.208 152.664 587.831 152.827 584.417C153.093 578.856 152.213 573.346 156.743 568.576C158.414 566.817 158.042 563.119 158.601 560.305C159.125 560.182 159.649 560.06 160.173 559.937C161.779 565.605 164.033 571.187 164.799 576.966C165.497 582.229 165.679 587.161 169.708 588.749C170.24 592.368 171.239 594.91 170.809 597.181C170.06 601.137 168.893 605.171 167.024 608.709C165.455 611.68 164.566 613.983 167.699 617.217C169.09 614.643 170.322 612.362 171.554 610.082C171.958 610.258 172.361 610.435 172.765 610.612C172.606 612.362 172.447 614.111 172.222 616.597C175.378 614.363 178.157 612.395 181.737 609.861C183.723 615.811 185.612 621.47 187.501 627.129C188.286 627.044 189.071 626.958 189.856 626.873C189.995 625.246 190.346 623.604 190.23 621.995C189.935 617.89 189.168 613.804 189.104 609.702C189.06 606.903 189.893 606.727 192.182 609.298C192.44 610.999 192.675 611.902 193.218 613.987C194.093 611.849 194.442 610.998 194.688 610.396C197.055 611.625 199.125 612.699 201.195 613.774C202.121 612.693 203.732 611.69 203.864 610.52C204.807 602.121 205.45 593.688 207.36 585.184C208.279 589.272 209.179 593.365 210.128 597.446C210.386 598.556 210.675 600.526 211.148 600.588C217.568 601.427 214.078 605.69 213.967 608.631C213.841 611.969 214.734 613.67 218.515 613.001C221.232 612.52 224.045 612.58 227.215 612.372C225.664 615.878 224.48 618.554 223.295 621.231C223.967 621.625 224.639 622.019 225.311 622.414C227.978 618.512 230.646 614.611 233.313 610.71C233.827 610.74 234.342 610.771 234.856 610.802C234.946 612.609 235.359 614.471 235.064 616.213C234.159 621.557 233.272 626.939 231.764 632.128C231.204 634.053 228.939 635.482 226.925 637.725C229.925 642.791 225.484 645.859 221.11 648.802C225.76 652.348 229.458 651.586 231.744 647.027C231.888 646.739 231.838 646.271 232.049 646.11C234.614 644.153 236.113 639.293 240.323 641.536C244.097 643.547 243.303 647.669 242.351 651.213C241.463 654.521 240.334 657.764 239.33 661.04C238.286 664.443 237.463 667.937 232.779 668.1C231.931 668.13 231.127 669.409 230.303 670.112C231.149 670.988 232.184 672.733 232.812 672.598C236.413 671.82 239.897 670.52 243.464 669.556C245.278 669.065 247.182 668.908 249.045 668.599C249.215 671.607 254.619 672.935 250.788 677.66C247.577 681.62 246.516 687.343 244.634 692.335C244.428 692.881 244.932 693.869 245.368 694.458C252.309 703.823 261.37 703.94 269.068 694.338C263.807 693.209 256.395 696.058 254.491 689.664C253.188 685.289 255.5 679.837 256.912 674.529C262.774 682.676 270.809 682.48 278.89 681.876C280.15 681.782 281.338 680.722 282.559 680.109C281.662 679.086 280.959 677.631 279.83 677.124C276.734 675.734 273.292 675.06 270.305 673.496C267.77 672.169 265.559 670.118 263.472 668.109C262.953 667.611 263.059 665.507 263.608 665.08C264.431 664.44 265.937 664.352 267.088 664.51C277.787 665.975 288.534 667.294 299.048 663.874C302.895 662.622 306.329 660.101 309.659 657.592C296.329 652.98 282.323 657.405 268.95 651.832C270.088 650.203 270.713 648.61 271.88 647.771C274.82 645.658 277.593 644.003 279.834 640.538C281.758 637.561 287.413 636.742 291.582 635.526C299.426 633.237 307.387 631.35 315.983 629.107C316.775 628.55 316.884 628.182 316.993 627.814C316.993 627.814 317.003 627.976 317.263 628.069C317.961 627.584 318.399 627.005 318.957 626.267C310.001 626.267 301.473 626.358 292.95 626.189C291.301 626.156 289.673 625.109 288.035 624.53ZM105.356 644.73C104.421 646.255 103.229 647.685 102.628 649.332C102.106 650.764 102.251 652.44 102.101 654.008C103.76 653.837 106.229 654.3 106.941 653.389C110.595 648.714 112.479 643.361 111.663 637.429C111.085 637.164 110.507 636.9 109.929 636.636C108.555 639.132 107.181 641.628 105.356 644.73ZM265.208 709.343C267.57 711.665 269.688 714.103 273.705 712.155C276.122 710.983 278.995 710.752 281.752 710.076C280.635 705.36 277.197 703.288 272.371 705.389C269.992 706.425 267.696 707.651 265.208 709.343Z" fill="#397745"/>
<path d="M1194.48 679.343C1183.39 676.392 1172.29 673.454 1161.2 670.487C1106.81 655.938 1051.51 646.834 995.356 642.857C923.034 637.734 851.204 641.949 779.876 654.568C758.734 658.308 737.806 663.255 716.778 667.641C714.335 668.151 711.881 668.61 708.997 669.03C714.829 661.317 720.824 653.425 727.415 646.067C744.514 626.976 765.011 612.353 788.085 601.338C793.242 598.876 798.705 597.056 804.707 594.884C805.711 594.589 806.038 594.351 806.364 594.112C806.364 594.112 806.471 593.968 806.911 594.011C807.99 593.742 808.628 593.43 809.266 593.118C809.266 593.118 809.455 592.97 809.924 592.999C811.018 592.725 811.643 592.422 812.267 592.119C812.267 592.119 812.45 591.971 812.988 592.027C817.572 590.758 821.62 589.435 826.072 588C838.351 585.594 850.212 583.228 862.105 581.033C869.385 579.689 876.714 578.608 884.021 577.409C891.516 577.268 899.022 577.321 906.505 576.936C915.306 576.482 924.088 575.648 933.807 575.074C950.567 575.121 966.399 575.073 982.231 575.025C987.461 575.354 992.689 575.724 997.921 576.001C1010.23 576.654 1022.64 576.517 1034.84 578.061C1053.34 580.404 1071.67 584.135 1090.13 586.849C1112.75 590.173 1134.51 596.852 1156.39 603.053C1160.38 604.182 1164.57 605.336 1167.97 607.559C1171.43 609.827 1174.59 613.048 1176.88 616.515C1184.57 628.143 1191.85 640.05 1194.65 654.027C1194.9 655.291 1194.92 656.601 1194.94 658.787C1194.71 666.237 1194.6 672.79 1194.48 679.343Z" fill="#69BEE0"/>
<path d="M883.887 577.127C876.713 578.608 869.384 579.689 862.104 581.033C850.211 583.228 838.35 585.594 825.649 587.906C820.298 588.221 815.773 588.519 811.248 588.816C802.656 590.197 794.067 591.593 785.472 592.953C779.109 593.96 772.738 594.92 766.371 595.901C766.125 595.335 765.879 594.77 765.633 594.204C780.736 585.536 795.838 576.867 810.94 568.198C810.734 567.583 810.528 566.967 810.322 566.352C805.91 566.617 801.499 566.882 796.18 566.975C780.758 566.803 766.243 566.803 751.214 566.803C752.091 565.914 752.435 565.564 752.779 565.215C761.786 561.533 770.917 558.127 779.767 554.1C791.031 548.975 802.071 543.355 813.189 537.911C813.567 537.727 813.751 537.148 814.874 535.531C799.262 543.665 783.463 542.624 767.681 543.946C768.127 537.402 773.226 535.701 776.7 532.799C788.737 522.742 800.989 512.942 813.049 502.911C815.082 501.22 816.567 498.87 817.984 497.201C811.254 498.451 804.198 499.761 796.267 500.934C787.61 500.74 779.83 500.684 772.049 500.628C774.341 499.091 776.554 497.416 778.94 496.04C789.787 489.785 800.687 483.62 811.55 477.39C812.079 477.087 812.429 476.472 813.237 475.597C809.159 475.788 805.579 475.955 801.086 476.008C793.268 475.803 786.363 475.713 779.458 475.623C781.224 474.613 782.951 473.526 784.762 472.605C795.332 467.226 805.412 461.138 814.168 452.473C814.561 451.991 814.717 451.787 814.874 451.583C814.582 451.721 814.29 451.858 813.998 451.996C808.238 453.906 802.555 456.124 796.685 457.596C793.727 458.337 790.43 457.725 787.286 457.725C787.123 456.986 786.96 456.246 786.797 455.506C794.462 451.801 802.126 448.097 809.92 444.329C801.748 444.329 794.271 444.392 786.798 444.253C785.806 444.234 784.834 443.183 783.852 442.61C784.737 441.948 785.572 441.202 786.515 440.635C794.304 435.954 802.113 431.306 810.116 426.387C810.5 425.939 810.685 425.753 810.869 425.567C810.768 425.503 810.599 425.365 810.577 425.385C810.372 425.578 810.192 425.796 810.005 426.008C808.382 426.293 806.767 426.628 805.136 426.852C801.381 427.369 798.028 427.074 797.378 423.85C804.825 417.149 811.785 410.887 818.745 404.625C818.434 404.343 818.122 404.06 817.811 403.778C812.787 404.267 807.763 404.756 802.523 405.267C802.233 401.426 803.645 400.01 806.37 397.958C812.249 393.532 817.113 387.758 822.392 382.535C822.092 382.248 821.792 381.96 821.492 381.673C817.056 382.114 812.62 382.555 808.184 382.997C808.09 382.537 807.996 382.077 807.902 381.617C812.764 376.128 817.626 370.639 822.8 364.797C821.343 363.978 820.08 363.355 818.907 362.592C815.41 360.318 815.718 357.344 818.548 354.187C821.913 350.433 824.66 346.084 827.272 341.751C827.61 341.191 825.833 338.659 824.538 337.95C821.384 336.224 820.499 333.861 823.342 331.849C829.344 327.601 829.95 321.222 831.173 314.961C831.266 314.481 831.479 314.019 831.683 313.571C831.734 313.458 831.968 313.428 832.752 313.072C835.135 316.163 836.282 319.799 835.82 323.687C835.178 329.104 836.422 333.208 841.71 335.645C842.859 336.175 843.608 337.573 844.491 338.518C844.102 339.075 843.973 339.491 843.719 339.591C835.589 342.81 835.504 343.42 841.656 349.773C843.465 351.641 844.898 353.872 846.504 355.937C843.823 356.878 841.143 357.818 838.308 358.813C839.695 367.26 848.998 370.443 853.722 378.968C848.291 378.968 844.289 378.968 840.288 378.968C840.127 379.327 839.967 379.686 839.806 380.046C845.97 385.516 852.135 390.987 858.299 396.457C858.139 397.043 857.979 397.629 857.82 398.215C854.07 398.585 850.32 398.956 846.572 399.326C847.708 406.761 861.88 415.213 871.201 412.787C870.27 415.363 870.018 417.518 868.87 418.958C865.457 423.24 860.768 423.477 855.466 423.016C859.076 424.684 862.586 426.642 866.324 427.939C870.121 429.256 874.144 429.922 878.068 430.872C878.143 431.365 878.218 431.857 878.292 432.35C874.609 432.966 870.927 433.583 866.784 434.277C869.16 435.332 871.739 436.477 875.362 438.085C866.583 441.938 859.753 438.183 852.304 435.872C851.598 435.558 851.361 435.482 851.123 435.405C851.307 435.733 851.491 436.06 851.676 436.387C857.039 443.788 865.367 446.396 873.227 449.8C877.624 451.704 881.919 453.843 886.052 456.542C874.559 459.175 864.082 455.479 853.193 451.835C852.586 451.616 852.36 451.567 852.133 451.517C852.168 451.646 852.183 451.874 852.24 451.885C852.503 451.936 852.777 451.926 853.047 451.938C858.305 456.153 863.299 460.767 868.901 464.46C873.649 467.59 879.179 469.511 884.194 472.275C885.783 473.152 886.827 475.018 888.849 477.228C873.768 479.587 861.713 474.535 849.281 468.861C848.571 468.55 848.319 468.481 848.066 468.413C848.261 468.753 848.456 469.093 848.651 469.433C861.822 477.819 874.992 486.205 889.315 495.326C880.559 494.518 872.698 493.793 864.283 492.84C863.32 492.48 862.911 492.349 862.502 492.218C863.019 492.46 863.535 492.701 864.052 492.943C869.694 498.83 875.819 503.848 884.047 505.881C887.565 506.751 890.74 508.981 894.25 509.922C898.732 511.124 903.395 511.647 908.702 512.591C908.507 516.812 904.998 519.724 901.127 522.039C893.996 526.301 885.904 525.321 878.254 524.76C871.332 524.252 864.541 521.979 857.204 521.058C861.116 523.316 865.015 525.598 868.944 527.827C881.934 535.198 895.013 542.416 907.859 550.028C910.198 551.414 911.603 554.373 913.947 557.223C889.263 553.853 865.967 549.598 844.493 537.883C846.158 540.113 847.585 542.581 849.53 544.533C859.156 554.191 868.889 563.745 878.668 573.25C880.138 574.679 882.048 575.658 883.887 577.127Z" fill="#273D5A"/>
<path d="M460.5 709.116C461.623 706.461 459.232 706.744 457.912 706.132C450.168 702.536 442.44 698.903 434.422 695.11C432.983 692.651 431.83 690.366 430.167 687.072C453.065 690.392 467.949 678.309 483.088 663.226C478.346 663.556 474.908 663.558 471.551 664.077C464.122 665.226 456.743 666.7 449.317 667.866C448.173 668.046 446.425 667.654 445.798 666.861C445.248 666.166 445.463 664.264 446.054 663.363C450.575 656.462 457.313 652.573 464.885 649.82C471.719 647.335 478.493 644.687 485.181 641.067C481.487 641.067 477.794 641.067 473.177 640.948C469.437 640.896 466.618 641.082 463.806 641.006C456.579 640.812 449.354 640.502 442.129 640.238C445.407 639.51 448.684 638.783 452.73 638.148C454.436 637.852 455.373 637.464 456.31 637.076C456.31 637.076 456.424 636.953 456.905 637.09C460.307 636.168 463.228 635.109 466.073 634.014C465.998 633.978 466.247 633.924 466.247 633.924C466.247 633.924 466.071 634.112 465.614 634.029C462.973 633.939 460.79 633.931 458.608 633.923C458.608 633.923 458.381 634.07 458.013 633.72C456.685 633.228 455.724 633.087 454.764 632.945C450.669 633.105 447.81 631.249 445.201 627.323C456.71 626.187 466.757 623.196 475.365 617.055C469.942 616.762 464.571 616.837 459.355 615.979C457.695 615.706 456.443 612.953 455.005 611.335C456.439 610.534 457.795 609.511 459.321 608.967C468.502 605.693 476.213 600.233 483.222 593.426C476.641 593.591 470.144 594.764 464.528 591.136C469.911 586.911 475.156 582.795 480.4 578.679C480.214 578.233 480.028 577.786 479.842 577.339C471.657 576.882 463.381 576.673 456.767 569.13C469.166 567.035 479.808 562.711 487.106 551.678C482.128 549.025 477.123 546.357 471.552 543.387C480.424 536.31 490.789 532.165 493.456 520.569C490.259 519.884 486.746 519.131 483.187 518.367C486.95 514.523 490.32 511.081 493.966 507.356C491.591 506.01 489.665 504.92 488.12 504.045C491.513 495.901 494.732 488.173 498.203 479.842C498.772 480.678 499.787 481.518 499.917 482.477C500.424 486.225 500.602 490.015 501.009 493.779C501.148 495.058 501.279 496.524 501.967 497.524C504.302 500.913 506.774 504.097 502.324 507.735C501.903 508.079 501.855 509.527 502.219 510.075C504.489 513.5 506.925 516.815 509.306 520.167C509.778 519.956 510.251 519.745 510.723 519.535C509.535 520.524 508.346 521.514 506.865 522.748C509.58 525.378 510.245 527.673 507.055 530.772C504.703 533.057 506.545 535.556 509.294 536.839C515.716 539.834 522.159 542.784 528.69 545.797C528.365 546.045 527.665 546.578 526.143 546.998C518.029 545.547 510.736 544.21 503.615 542.905C506.809 548.114 512.264 549.167 518.246 549.071C518.977 549.432 519.709 549.794 521.292 550.577C517.816 553.483 514.573 556.193 510.611 559.504C518.681 562.726 526.46 565.831 535.152 569.3C531.834 570.251 528.856 571.104 525.025 571.888C520.363 572.006 516.555 572.193 512.748 572.379C512.678 572.933 512.608 573.487 512.538 574.04C515.73 574.657 518.922 575.273 522.113 575.89C522.113 575.89 522.007 575.918 522.135 576.277C523.979 576.78 525.696 576.924 527.413 577.069C527.413 577.069 527.662 576.92 528.096 577.265C530.97 577.782 533.411 577.953 535.852 578.124C535.974 583.544 531.024 581.996 527.309 584.205C530.64 585.146 533.202 585.87 537.405 587.057C534.591 588.424 532.833 589.278 530.24 589.938C524.473 589.744 519.54 589.744 514.608 589.744C514.551 590.022 514.495 590.3 514.438 590.578C517.336 591.023 520.234 591.469 523.132 591.915C523.132 591.915 523.045 591.924 523.019 592.222C523.625 592.722 524.257 592.925 524.889 593.127C528.267 594.003 531.687 594.747 534.999 595.826C536.146 596.2 537.022 597.405 538.023 598.23C536.977 599.06 535.976 600.527 534.876 600.605C530.964 600.881 527.016 600.747 523.086 600.631C521.861 600.595 520.648 600.123 519.278 600.334C527.319 605.122 535.313 609.946 545.704 610.193C547.824 612.247 549.362 614.048 550.474 615.906C539.67 616.867 529.291 617.77 517.749 618.775C527.363 625.299 536.171 631.277 545.289 637.515C547.305 638.605 548.953 639.972 550.726 640.162C555.966 640.721 561.259 640.774 566.525 641.114C568.139 641.218 569.735 641.61 571.339 641.87C571.374 642.301 571.408 642.732 571.442 643.163C566.429 646.078 561.416 648.994 556.568 651.577C556.616 650.968 556.513 650.455 556.38 650.447C548.604 649.985 540.815 649.693 533.051 649.093C528.113 648.711 523.211 647.878 518.626 647.29C527.638 653.096 536.792 658.994 546.081 665.209C549.225 667.739 552.234 669.952 555.243 672.165C540.109 678.414 525.044 684.837 509.823 690.865C493.922 697.162 477.871 703.082 461.879 709.148C461.594 709.257 461.22 709.131 460.5 709.116Z" fill="#3A9A7D"/>
<path d="M555.594 672.073C552.234 669.952 549.225 667.739 546.042 664.826C546.131 657.253 552.064 655.269 556.403 651.91C561.416 648.994 566.429 646.078 571.442 643.163C571.408 642.732 571.374 642.301 571.34 641.87C569.735 641.61 568.139 641.218 566.525 641.114C561.259 640.774 555.967 640.721 550.727 640.162C548.953 639.972 547.305 638.605 545.482 637.261C554.003 631.255 562.641 625.762 571.421 620.179C568.172 619.745 565.261 619.357 562.35 618.968C562.228 618.628 562.106 618.289 561.985 617.949C567.214 614.862 572.444 611.774 577.561 608.752C568.721 611.105 559.81 613.477 550.899 615.848C549.362 614.048 547.825 612.247 546.138 610.143C553.858 605.477 561.724 601.11 569.602 596.763C570.696 596.159 571.846 595.656 573.838 594.682C567.359 592.811 560.066 596.156 555.534 588.478C559.943 586.934 563.986 585.517 569.293 583.657C566.371 581.979 564.22 580.743 561.168 578.99C563.362 577.308 565.008 575.921 566.781 574.723C568.501 573.561 570.351 572.595 572.144 571.542C572.065 571.085 571.985 570.628 571.906 570.171C568.236 570.171 564.565 570.178 560.895 570.167C559.544 570.163 558.194 570.115 556.843 570.087C557.367 568.622 557.891 567.157 558.483 565.501C556.777 564.87 554.477 564.018 552.176 563.165C552.201 562.744 552.227 562.322 552.253 561.901C559.004 560.102 566.894 562.091 572.16 556.988C571.059 554.461 570.088 552.233 569.017 549.777C566.203 549.982 562.566 550.861 561.119 547.293C566.06 544.406 570.741 541.672 575.836 538.695C569.768 535.028 569.46 534.067 574.038 530.082C579.409 525.406 581.159 519.565 581.036 512.821C580.972 509.324 580.365 505.742 580.926 502.351C581.813 496.983 583.282 491.682 584.932 486.488C585.399 485.02 587.355 484.024 589.308 482.164C591.879 490.51 593.647 497.994 593.764 505.98C593.802 508.59 596.192 511.166 597.628 513.997C593.685 518.813 593.611 518.889 598.804 523.916C601.728 526.748 603.109 529.33 599.458 532.628C597.12 534.741 597.4 537.01 599.932 538.845C601.583 540.042 603.398 541.01 605.092 542.153C608.996 544.787 608.859 548.405 604.525 550.365C600.775 552.06 600.428 553.688 602.844 557.102C606.674 562.513 612.182 563.963 618.086 565.103C619.363 565.349 620.507 566.29 621.712 566.91C620.676 567.99 619.703 569.92 618.594 570.001C613.869 570.349 609.103 570.149 604.617 570.149C609.929 578.05 620.383 573.813 627.803 577.568C627.765 578.181 627.727 578.794 627.688 579.407C624.646 579.669 621.603 579.932 617.698 580.27C620.476 583.33 623.048 585.898 625.28 588.734C626.391 590.145 626.878 592.046 627.648 593.726C625.94 594.461 624.216 595.854 622.528 595.811C616.668 595.664 610.82 595.018 604.791 594.548C612.198 601.991 621.943 602.245 631.817 602.107C632.071 602.658 632.324 603.21 632.577 603.761C629.874 606.482 627.171 609.202 624.655 611.734C628.115 616.434 631.93 621.614 635.744 626.794C635.386 627.438 635.027 628.081 634.669 628.725C625.191 627.437 615.714 626.15 606.305 624.872C615.268 636.799 628.297 638.926 642.449 639.023C613.614 650.009 584.779 660.995 555.594 672.073Z" fill="#7495B8"/>
<path d="M953.22 498.113C953.22 498.113 953.39 497.93 953.912 498.113C956.778 497.842 959.121 497.388 961.464 496.934C961.425 496.641 961.386 496.348 961.347 496.056C956.193 496.056 951.038 496.056 945.884 496.056C945.884 496.056 946.029 496.014 945.885 495.867C945.14 495.763 944.539 495.805 943.938 495.846C942.691 495.238 941.444 494.629 940.197 494.02C940.209 493.633 940.222 493.246 940.234 492.86C941.497 492.548 942.743 492.091 944.024 491.954C947.263 491.608 947.198 491.614 949.554 488.384C950.017 487.749 951.237 487.537 952.151 487.381C958.12 486.365 961.632 482.133 965.559 477.365C956.593 477.995 948.133 479.092 938.311 476.509C946.131 470.566 955.946 470.284 960.288 462.346C960.442 462.096 960.864 461.779 961.287 461.461C960.837 461.596 960.386 461.731 959.936 461.866C956.878 462.237 953.828 462.761 950.76 462.898C949.619 462.949 948.437 462.095 947.273 461.653C947.955 460.429 948.443 459.032 949.355 458.014C952.025 455.037 954.863 452.212 957.912 449.039C953.677 447.925 950.781 447.164 947.885 446.403C947.921 445.847 947.958 445.291 947.995 444.735C949.393 444.173 950.791 443.611 952.894 442.998C953.709 442.582 953.819 442.216 953.929 441.85C953.929 441.85 953.945 441.922 954.242 442.123C956.841 441.23 959.143 440.135 961.446 439.041C961.284 438.725 961.123 438.409 960.962 438.093C958.594 438.093 956.227 438.093 953.859 438.093C953.859 438.093 953.936 438.085 953.996 437.749C953.609 437.257 953.162 437.101 952.714 436.945C953.354 435.249 953.594 433.205 954.71 431.924C957.629 428.573 960.931 425.554 964.469 422.013C961.321 420.93 959.333 420.246 956.77 419.363C959.739 414.945 962.301 411.131 964.976 407.148C961.933 406.24 959.107 405.398 955.121 404.209C966.771 394.565 968.336 381.408 971.545 369.006C972.107 369.056 972.67 369.106 973.233 369.155C974.486 374.927 975.577 380.74 977.054 386.454C977.973 390.011 979.381 393.455 980.743 396.88C982.111 400.319 982.335 403.255 976.211 404.967C981.636 409.539 985.888 413.124 990.427 416.949C988.521 421.409 983.626 419.481 979.113 421.353C983.18 424.163 987.247 426.973 991.844 430.149C989.692 430.968 987.724 431.717 985.831 432.438C986.356 433.556 987.19 435.333 988.406 437.924C989.107 438.167 990.884 438.784 992.661 439.401C992.727 439.758 992.793 440.116 992.859 440.474C989.085 441.595 985.311 442.717 980.548 444.133C983.656 446.085 986.495 447.868 989.864 450.172C991.384 450.812 992.374 450.93 993.365 451.049C993.365 451.049 993.666 450.92 993.998 451.247C994.886 451.815 995.442 452.056 997.231 452.83C994.118 453.337 992.198 453.649 990.28 453.961C990.231 454.269 990.182 454.576 990.133 454.883C991.138 455.226 992.144 455.568 993.149 455.911C993.149 455.911 993.073 455.921 992.993 456.227C993.322 456.68 993.731 456.827 994.14 456.974C994.14 456.974 993.997 456.981 994.079 457.257C994.816 457.671 995.472 457.808 996.127 457.945C996.127 457.945 996.059 457.947 995.899 458.275C993.433 458.982 991.072 459.873 988.834 459.628C985.009 459.209 981.261 458.08 977.48 457.249C977.27 457.584 977.06 457.919 976.85 458.254C978.95 459.807 981.05 461.361 983.15 462.914C983.15 462.914 983.069 462.921 982.995 463.24C983.335 463.685 983.747 463.811 984.16 463.937C984.16 463.937 984.072 463.933 983.964 464.251C984.622 465.022 985.389 465.474 986.155 465.925C986.155 465.925 986.084 465.927 985.966 466.207C986.194 466.746 986.538 467.006 986.883 467.265C989.754 469.155 992.405 471.679 995.553 472.767C999.163 474.016 1003.21 473.99 1007.76 474.613C1001.68 481.828 993.801 480.255 985.446 479.97C990.834 483.142 995.495 485.885 1001.19 489.238C993.114 492.693 986.192 489.105 979.347 489.099C979.198 489.504 979.05 489.908 978.902 490.312C984.929 493.461 991.35 496.048 996.868 499.922C1002.11 503.6 1009.41 503.311 1014.71 508.731C1006.59 512.307 999.436 511.085 991.782 510.365C987.481 508.297 983.753 506.633 979.931 504.74C979.607 504.273 979.354 504.063 979.003 503.886C978.929 503.89 978.962 503.62 978.962 503.62C978.962 503.62 979.165 503.796 979.128 504.082C979.297 504.669 979.505 504.971 979.817 505.596C982.328 507.577 984.735 509.235 987.143 510.892C987.143 510.892 987.056 510.912 987.048 511.266C987.542 511.753 988.043 511.887 988.545 512.02C992.238 514.322 995.926 516.633 999.626 518.924C1004.02 521.644 1008.58 524.126 1012.75 527.157C1014.69 528.57 1015.87 531.035 1017.39 533.023C1017.09 533.66 1016.78 534.296 1016.47 534.933C1002.79 532.033 989.112 529.134 975.034 526.15C976.194 527.437 977.269 529.47 978.949 530.36C992.173 537.367 1005.52 544.146 1018.81 551.025C1019.8 551.537 1020.66 552.279 1021.53 553.551C1018.41 554.552 1015.36 555.186 1012.3 555.236C995.905 555.504 979.507 555.627 963.109 555.8C962.08 555.889 961.051 555.978 959.157 555.912C948.87 555.853 939.448 555.95 930.025 556.046C924.362 553.341 921.632 548.049 918.109 543.455C918.257 542.962 918.405 542.47 918.553 541.977C920.9 541.977 923.292 542.274 925.586 541.925C935.154 540.467 944.692 538.815 954.773 537.426C955.874 537.354 956.442 537.092 957.011 536.829C957.011 536.829 956.99 536.943 957.265 537.115C958.953 536.883 960.365 536.478 961.777 536.073C961.701 535.702 961.624 535.33 961.548 534.959C953.958 534.959 946.368 534.959 938.778 534.959C933.725 535.174 929.282 533.814 925.134 529.722C929.86 529.12 933.954 528.599 938.825 528.077C940.057 527.661 940.513 527.244 940.969 526.827C940.969 526.827 940.955 526.903 941.196 527.122C942.038 527.065 942.64 526.787 943.242 526.51C943.199 526.211 943.156 525.912 943.113 525.613C940.893 525.402 938.674 525.192 936.454 524.981C936.454 524.981 936.486 524.95 936.395 524.584C935.821 524.171 935.338 524.122 934.855 524.074C934.855 524.074 934.927 524.059 935.086 523.792C935.507 522.726 935.768 521.927 936.029 521.128C936.029 521.128 936.306 520.931 936.864 521.105C938.684 520.88 939.948 520.48 941.211 520.08C941.211 520.08 941.389 519.907 941.862 520.065C943.509 519.868 944.683 519.514 945.857 519.159C951.392 516.9 956.927 514.641 962.462 512.382C952.032 510.155 941.104 514.166 931.428 507.53C941.683 508.915 951.532 508.598 960.726 501.831C961.13 501.17 960.877 500.006 960.578 499.994C957.333 499.863 954.081 499.912 950.143 499.912C951.628 499.044 952.424 498.578 953.22 498.113Z" fill="#3D9E80"/>
<path d="M1117.97 463.507C1117.97 463.507 1117.96 463.489 1117.92 463.835C1118.19 465.044 1118.51 465.909 1118.82 466.774C1119.88 469.446 1121.97 472.192 1121.79 474.777C1121.31 481.555 1126.62 484.351 1129.93 488.552C1130.31 489.028 1130.7 489.493 1131.62 490.627C1128.1 490.855 1125.26 491.038 1122.61 491.21C1123.33 500.077 1131.41 502.047 1137.32 506.353C1133.72 509.167 1130.66 511.555 1127.46 514.06C1128.54 519.477 1134.2 518.578 1138.72 520.963C1136.66 522.44 1135.07 523.575 1132.72 525.259C1135.86 526.574 1138.67 527.753 1141.81 529.069C1139.71 532.582 1135.77 532.979 1131.65 533.202C1139.39 538.263 1146.85 543.143 1154.31 548.023C1154.24 548.627 1154.16 549.231 1154.09 549.836C1146.77 551.18 1139.45 552.524 1131.02 554.071C1133.2 555.565 1134.87 557.024 1136.79 557.941C1139.26 559.12 1141.9 560.034 1144.55 560.752C1147.78 561.628 1151.02 562.069 1151.14 566.614C1151.17 567.629 1152.9 568.6 1154.26 570.028C1152.53 570.623 1151.2 571.083 1149.03 571.83C1153.71 573.804 1157.8 575.533 1162.12 577.356C1158.85 580.784 1155.26 581.678 1150.67 580.464C1130.78 575.201 1110.84 570.158 1090.92 565.007C1089.07 564.529 1087.27 563.856 1084.03 562.82C1090.6 558.119 1096.22 554.095 1102.57 549.544C1098.02 549.318 1094.74 549.156 1091.47 548.995C1091.41 548.512 1091.36 548.029 1091.31 547.546C1092.92 546.111 1094.53 544.676 1096.33 543.079C1094.22 541.717 1092.63 540.693 1090.52 539.328C1094.06 537.652 1097.12 536.346 1100.03 534.768C1101.45 534.002 1102.58 532.727 1103.84 531.682C1102.54 530.654 1101.27 529.585 1099.93 528.614C1099.15 528.048 1098.26 527.638 1096.01 526.354C1099.9 523.126 1103.23 520.358 1107.25 517.025C1103.01 516.107 1099.42 515.33 1095.83 514.553C1095.76 514.114 1095.7 513.675 1095.63 513.236C1100.07 510.551 1105.84 509.318 1107.23 503.638C1104.42 502.883 1101.74 502.161 1097.88 501.122C1103.86 497.917 1108.48 495.443 1113.93 492.521C1106.78 488.935 1110.47 485.292 1113.16 481.154C1114.4 475.871 1115.01 471.089 1115.89 466.358C1116.09 465.315 1117.25 464.453 1117.97 463.507Z" fill="#3A9C7E"/>
<path d="M1194.59 679.774C1194.6 672.79 1194.71 666.237 1194.89 659.195C1195.32 659.87 1196 661.034 1196 662.198C1196.05 714.069 1196.04 765.94 1196.02 817.812C1196.02 818.463 1195.83 819.114 1195.31 819.96C1194.89 775.501 1194.88 730.847 1194.86 686.194C1194.86 684.198 1194.75 682.202 1194.59 679.774Z" fill="#C5E8DF"/>
<path d="M56.8531 800.47C56.4654 802.287 55.8659 803.697 55.8626 805.108C55.7952 833.642 55.773 862.176 55.8135 890.711C55.8185 894.18 56.2347 897.649 56.3249 901.432C55.7691 900.045 54.9838 898.346 54.9822 896.646C54.9525 865.502 55.0165 834.358 55.0623 803.215C55.064 802.051 55.0838 800.887 55.0952 799.724C55.7031 799.836 56.3109 799.949 56.8531 800.47Z" fill="#69BEE0"/>
<path d="M58.4817 672.963C57.9376 674.666 56.1087 676.31 56.0984 677.966C55.9573 700.665 56.0671 723.365 56.1096 746.533C55.7276 745.733 55.0272 744.466 55.0232 743.197C54.9526 721.078 54.9735 698.959 54.9539 676.839C54.9519 674.667 54.5116 672.257 58.4817 672.963Z" fill="#3D9E80"/>
<path d="M918.779 786.692C926.881 786.039 935.379 784.932 943.883 784.887C952.389 784.842 960.897 785.935 969.413 786.367C972.257 786.511 975.127 786.153 978.286 785.829C974.859 785.343 971.126 784.755 967.403 784.814C952.743 785.044 938.086 785.456 923.43 785.869C922.006 785.909 920.594 786.414 918.779 786.692Z" fill="#C5E8DF"/>
<path d="M963.571 555.816C979.507 555.627 995.905 555.504 1012.3 555.236C1015.36 555.186 1018.41 554.552 1021.72 553.826C1023.61 555.162 1023.29 555.979 1020.9 555.949C1017.74 555.91 1014.58 555.917 1011.42 555.911C995.624 555.883 979.829 555.858 963.571 555.816Z" fill="#C5E8DF"/>
<path d="M334.392 1040.5C334.348 1036.64 331.91 1038.23 329.821 1038.83C327.562 1039.49 325.32 1040.7 323.051 1040.74C312.121 1040.97 301.179 1041.09 290.253 1040.81C286.688 1040.72 283.183 1039.12 279.598 1038.54C278.167 1038.31 276.593 1038.97 275.077 1039.9C294.682 1040.53 314.293 1040.48 334.392 1040.5Z" fill="#C5E8DF"/>
<path d="M267.956 955.324C287.259 954.865 306.776 954.814 326.775 954.842C326.772 955.29 326.286 955.982 325.802 955.981C306.591 955.937 287.381 955.83 267.956 955.324Z" fill="#C5E8DF"/>
<path d="M171.049 761.378C188.296 760.935 205.735 760.9 223.647 760.92C223.472 761.328 222.823 761.989 222.174 761.988C205.197 761.962 188.219 761.868 171.049 761.378Z" fill="#C5E8DF"/>
<path d="M518.306 548.66C512.265 549.168 506.81 548.115 503.615 542.905C510.736 544.21 518.029 545.547 525.782 546.924C523.617 547.392 520.992 547.82 518.306 548.66Z" fill="#C5E8DF"/>
<path d="M752.403 565.146C752.435 565.565 752.09 565.914 751.214 566.803C766.243 566.803 780.758 566.803 795.739 566.935C795.37 567.409 794.536 568.048 793.7 568.05C779.912 568.082 766.124 568.05 752.336 567.973C751.282 567.967 750.23 567.522 748.996 566.107C750.006 565.763 751.017 565.42 752.403 565.146Z" fill="#69BEE0"/>
<path d="M982.012 574.624C966.398 575.073 950.567 575.121 934.254 575.096C934.427 574.666 935.083 573.995 935.737 573.996C951.089 574.028 966.442 574.132 982.012 574.624Z" fill="#C5E8DF"/>
<path d="M983.111 462.549C981.05 461.361 978.95 459.807 976.851 458.254C977.061 457.919 977.271 457.584 977.481 457.249C981.261 458.08 985.009 459.209 988.835 459.628C991.072 459.872 993.433 458.982 995.907 458.242C998.287 459.354 998.44 460.753 995.516 460.969C992.133 461.218 988.706 460.809 985.302 460.881C984.55 460.897 983.815 461.729 983.111 462.549Z" fill="#C5E8DF"/>
<path d="M287.725 624.836C289.674 625.109 291.302 626.156 292.95 626.189C301.474 626.358 310.002 626.267 318.958 626.267C318.399 627.006 317.962 627.584 317.183 628.074C315.54 627.672 314.242 627.109 312.934 627.087C305.121 626.952 297.304 626.986 289.492 626.814C288.787 626.798 288.106 625.724 287.725 624.836Z" fill="#C5E8DF"/>
<path d="M952.757 498.086C952.425 498.578 951.629 499.044 950.144 499.912C954.082 499.912 957.334 499.863 960.578 499.994C960.878 500.006 961.131 501.17 961.079 501.916C958.858 501.662 956.971 501.031 955.066 500.97C950.282 500.815 945.491 500.919 940.702 500.919C940.688 500.351 940.673 499.784 940.658 499.217C944.536 498.832 948.414 498.446 952.757 498.086Z" fill="#C5E8DF"/>
<path d="M441.703 640.193C449.354 640.502 456.578 640.812 463.806 641.007C466.618 641.082 469.437 640.896 472.733 640.891C472.392 641.316 471.572 641.988 470.749 641.993C461.426 642.046 452.102 642.026 442.779 641.907C442.169 641.899 438.835 643.176 441.703 640.193Z" fill="#C5E8DF"/>
<path d="M979.91 838.587C968.676 839.037 957.254 839.082 945.359 839.065C945.536 838.656 946.186 838.007 946.835 838.008C957.797 838.018 968.759 838.109 979.91 838.587Z" fill="#C5E8DF"/>
<path d="M201.396 613.465C199.126 612.699 197.056 611.624 194.689 610.396C194.442 610.998 194.094 611.849 193.219 613.987C192.676 611.902 192.441 610.999 192.182 609.735C196.161 608.498 199.98 608.081 201.396 613.465Z" fill="#69BEE0"/>
<path d="M771.667 500.465C779.83 500.685 787.61 500.741 795.848 500.983C794.967 501.507 793.633 502.121 792.292 502.137C784.367 502.229 776.44 502.182 768.227 501.117C769.246 500.845 770.265 500.573 771.667 500.465Z" fill="#3D9E80"/>
<path d="M1117.98 463.078C1117.25 464.453 1116.09 465.315 1115.89 466.358C1115.01 471.089 1114.4 475.871 1113.4 480.896C1113.86 474.15 1114.6 467.143 1115.47 459.048C1116.68 460.777 1117.34 461.713 1117.98 463.078Z" fill="#C5E8DF"/>
<path d="M811.647 588.799C815.774 588.519 820.298 588.221 825.245 588.018C821.62 589.435 817.572 590.758 813.097 592.069C814.228 591.129 815.786 590.202 817.593 589.128C815.592 589.003 813.819 588.893 811.647 588.799Z" fill="#C5E8DF"/>
<path d="M930.219 556.435C939.448 555.95 948.87 555.853 958.772 555.848C957.769 556.31 956.287 556.993 954.802 556.999C946.672 557.033 938.542 556.9 930.219 556.435Z" fill="#C5E8DF"/>
<path d="M938.99 535.362C946.368 534.959 953.958 534.959 961.548 534.959C961.624 535.33 961.701 535.702 961.777 536.073C960.365 536.478 958.953 536.882 957.209 537.104C952.946 536.616 949.017 536.289 945.085 536.017C943.128 535.881 941.163 535.845 938.99 535.362Z" fill="#C5E8DF"/>
<path d="M523.286 591.545C520.234 591.469 517.336 591.023 514.438 590.578C514.495 590.3 514.552 590.022 514.609 589.745C519.541 589.745 524.473 589.745 529.877 589.843C528.046 590.352 525.743 590.764 523.286 591.545Z" fill="#C5E8DF"/>
<path d="M779.09 475.484C786.363 475.713 793.268 475.803 800.647 475.941C798.805 476.31 796.493 476.864 794.172 476.907C789.018 477.002 783.858 476.873 778.703 476.74C778.165 476.727 777.645 476.074 777.116 475.718C777.651 475.593 778.186 475.469 779.09 475.484Z" fill="#C5E8DF"/>
<path d="M521.96 575.556C518.922 575.274 515.731 574.657 512.539 574.04C512.609 573.487 512.679 572.933 512.748 572.38C516.556 572.193 520.364 572.006 524.63 571.911C522.675 572.484 520.263 572.967 517.244 573.571C518.949 574.187 520.377 574.704 521.96 575.556Z" fill="#C5E8DF"/>
<path d="M980.025 504.969C983.753 506.633 987.482 508.296 991.591 509.991C990.455 510.077 988.939 510.132 987.283 510.539C984.736 509.234 982.329 507.577 979.896 505.521C979.87 505.121 980.025 504.969 980.025 504.969Z" fill="#C5E8DF"/>
<path d="M946.064 496.431C951.039 496.056 956.193 496.056 961.348 496.056C961.387 496.348 961.425 496.641 961.464 496.933C959.121 497.388 956.778 497.842 954.012 498.188C951.141 497.655 948.693 497.231 946.064 496.431Z" fill="#C5E8DF"/>
<path d="M993.275 455.556C992.144 455.568 991.138 455.225 990.133 454.883C990.182 454.575 990.231 454.268 990.28 453.961C992.198 453.649 994.118 453.336 997.231 452.83C995.442 452.056 994.886 451.815 994.133 451.339C995.288 451.464 996.638 451.824 997.989 452.184C996.46 453.189 994.93 454.195 993.275 455.556Z" fill="#C5E8DF"/>
<path d="M953.975 438.392C956.227 438.092 958.594 438.092 960.961 438.092C961.123 438.408 961.284 438.724 961.446 439.04C959.143 440.135 956.841 441.229 954.208 442.108C953.948 440.826 954.019 439.759 953.975 438.392Z" fill="#C5E8DF"/>
<path d="M458.76 634.272C460.79 633.931 462.973 633.939 465.627 634.007C466.098 634.067 466.148 634.05 466.148 634.05C463.228 635.109 460.307 636.168 456.967 637.148C457.336 636.251 458.124 635.435 458.76 634.272Z" fill="#C5E8DF"/>
<path d="M936.719 525.264C938.674 525.191 940.893 525.402 943.113 525.613C943.156 525.912 943.198 526.211 943.241 526.51C942.64 526.787 942.038 527.064 941.158 527.114C939.58 526.441 938.282 525.994 936.719 525.264Z" fill="#C5E8DF"/>
<path d="M535.784 577.697C533.411 577.953 530.97 577.782 528.208 577.357C530.497 577.159 533.107 577.215 535.784 577.697Z" fill="#C5E8DF"/>
<path d="M935.649 521.114C935.768 521.927 935.507 522.726 935.072 523.826C934.29 523.277 933.682 522.428 933.073 521.58C933.805 521.42 934.537 521.26 935.649 521.114Z" fill="#C5E8DF"/>
<path d="M527.174 576.717C525.696 576.924 523.979 576.78 522.121 576.224C523.632 575.997 525.284 576.181 527.174 576.717Z" fill="#C5E8DF"/>
<path d="M945.468 519.111C944.683 519.514 943.509 519.868 941.961 520.139C942.751 519.725 943.915 519.394 945.468 519.111Z" fill="#C5E8DF"/>
<path d="M986.109 465.57C985.389 465.473 984.623 465.021 983.967 464.207C984.739 464.301 985.401 464.758 986.109 465.57Z" fill="#C5E8DF"/>
<path d="M940.786 520.047C939.948 520.48 938.685 520.88 937.021 521.169C937.868 520.711 939.115 520.363 940.786 520.047Z" fill="#C5E8DF"/>
<path d="M1118.86 466.407C1118.51 465.909 1118.19 465.044 1117.92 463.825C1118.28 464.327 1118.59 465.184 1118.86 466.407Z" fill="#C5E8DF"/>
<path d="M454.936 633.298C455.725 633.087 456.685 633.228 457.914 633.629C457.157 633.809 456.132 633.729 454.936 633.298Z" fill="#C5E8DF"/>
<path d="M455.895 637.045C455.373 637.464 454.436 637.852 453.112 638.153C453.644 637.715 454.562 637.364 455.895 637.045Z" fill="#C5E8DF"/>
<path d="M993.155 450.714C992.375 450.93 991.384 450.811 990.133 450.406C990.896 450.206 991.921 450.292 993.155 450.714Z" fill="#C5E8DF"/>
<path d="M808.877 593.052C808.628 593.43 807.99 593.742 806.984 594.063C807.24 593.71 807.864 593.348 808.877 593.052Z" fill="#C5E8DF"/>
<path d="M940.641 526.897C940.514 527.244 940.058 527.661 939.236 528.039C939.351 527.656 939.832 527.312 940.641 526.897Z" fill="#C5E8DF"/>
<path d="M996.015 457.631C995.472 457.808 994.817 457.671 994.076 457.186C994.628 456.997 995.265 457.157 996.015 457.631Z" fill="#C5E8DF"/>
<path d="M956.679 536.92C956.442 537.091 955.874 537.354 955.141 537.38C955.433 537.099 955.89 537.055 956.679 536.92Z" fill="#C5E8DF"/>
<path d="M944.297 495.89C944.539 495.804 945.14 495.763 945.906 495.94C945.6 496.084 945.127 496.009 944.297 495.89Z" fill="#C5E8DF"/>
<path d="M524.919 592.781C524.257 592.925 523.625 592.723 523.016 592.178C523.675 592.036 524.311 592.235 524.919 592.781Z" fill="#C5E8DF"/>
<path d="M811.884 592.055C811.642 592.422 811.018 592.725 810.037 593.038C810.288 592.696 810.895 592.343 811.884 592.055Z" fill="#C5E8DF"/>
<path d="M686.313 1297.06C686.21 1296.8 686.379 1296.46 686.842 1296.08C686.952 1296.36 686.769 1296.67 686.313 1297.06Z" fill="#C5E8DF"/>
<path d="M687.314 1296.06C687.21 1295.8 687.377 1295.46 687.84 1295.08C687.952 1295.36 687.769 1295.67 687.314 1296.06Z" fill="#C5E8DF"/>
<path d="M685.312 1298.06C685.209 1297.8 685.38 1297.47 685.842 1297.09C685.951 1297.35 685.768 1297.67 685.312 1298.06Z" fill="#C5E8DF"/>
<path d="M688.316 1295.06C688.21 1294.8 688.376 1294.46 688.838 1294.08C688.952 1294.36 688.77 1294.67 688.316 1295.06Z" fill="#C5E8DF"/>
<path d="M674.27 1309.04C674.208 1308.83 674.432 1308.55 674.887 1308.13C674.93 1308.31 674.742 1308.64 674.27 1309.04Z" fill="#C5E8DF"/>
<path d="M684.312 1299.06C684.21 1298.8 684.38 1298.47 684.842 1298.09C684.951 1298.35 684.768 1298.67 684.312 1299.06Z" fill="#C5E8DF"/>
<path d="M689.316 1294.06C689.21 1293.8 689.377 1293.46 689.84 1293.08C689.953 1293.36 689.77 1293.67 689.316 1294.06Z" fill="#C5E8DF"/>
<path d="M690.316 1293.06C690.21 1292.8 690.375 1292.46 690.838 1292.08C690.953 1292.36 690.77 1292.67 690.316 1293.06Z" fill="#C5E8DF"/>
<path d="M691.317 1292.06C691.21 1291.79 691.373 1291.45 691.836 1291.08C691.953 1291.36 691.77 1291.67 691.317 1292.06Z" fill="#C5E8DF"/>
<path d="M692.318 1291.06C692.21 1290.79 692.374 1290.45 692.836 1290.08C692.953 1290.36 692.771 1290.67 692.318 1291.06Z" fill="#C5E8DF"/>
<path d="M693.317 1290.06C693.211 1289.8 693.376 1289.46 693.838 1289.08C693.953 1289.36 693.771 1289.67 693.317 1290.06Z" fill="#C5E8DF"/>
<path d="M694.316 1289.06C694.21 1288.8 694.375 1288.46 694.838 1288.08C694.952 1288.36 694.77 1288.67 694.316 1289.06Z" fill="#C5E8DF"/>
<path d="M695.316 1288.06C695.21 1287.8 695.376 1287.46 695.839 1287.08C695.952 1287.36 695.77 1287.67 695.316 1288.06Z" fill="#C5E8DF"/>
<path d="M683.309 1300.06C683.208 1299.8 683.381 1299.47 683.844 1299.09C683.95 1299.35 683.766 1299.67 683.309 1300.06Z" fill="#C5E8DF"/>
<path d="M682.307 1301.06C682.209 1300.81 682.386 1300.48 682.848 1300.09C682.95 1300.35 682.766 1300.67 682.307 1301.06Z" fill="#C5E8DF"/>
<path d="M672.255 1311.03C672.21 1310.83 672.452 1310.57 672.897 1310.14C672.914 1310.3 672.728 1310.63 672.255 1311.03Z" fill="#C5E8DF"/>
<path d="M673.26 1310.03C673.208 1309.83 673.443 1309.56 673.894 1309.13C673.922 1309.3 673.734 1309.63 673.26 1310.03Z" fill="#C5E8DF"/>
<path d="M681.303 1302.06C681.208 1301.81 681.39 1301.48 681.853 1301.09C681.949 1301.35 681.764 1301.67 681.303 1302.06Z" fill="#C5E8DF"/>
<path d="M680.3 1303.06C680.209 1302.81 680.395 1302.49 680.856 1302.1C680.947 1302.34 680.762 1302.66 680.3 1303.06Z" fill="#C5E8DF"/>
<path d="M679.295 1304.06C679.207 1303.81 679.398 1303.5 679.861 1303.1C679.946 1303.34 679.76 1303.66 679.295 1304.06Z" fill="#C5E8DF"/>
<path d="M678.29 1305.05C678.207 1304.82 678.405 1304.51 678.866 1304.11C678.943 1304.33 678.756 1304.66 678.29 1305.05Z" fill="#C5E8DF"/>
<path d="M671.234 1312.15C671.222 1312.02 671.477 1311.72 671.907 1311.18C671.888 1311.29 671.694 1311.64 671.234 1312.15Z" fill="#C5E8DF"/>
<path d="M677.284 1306.05C677.207 1305.82 677.412 1305.52 677.872 1305.11C677.941 1305.33 677.753 1305.65 677.284 1306.05Z" fill="#C5E8DF"/>
<path d="M676.283 1307.05C676.208 1306.82 676.414 1306.53 676.873 1306.11C676.938 1306.33 676.751 1306.65 676.283 1307.05Z" fill="#C5E8DF"/>
<path d="M675.278 1308.05C675.207 1307.82 675.418 1307.53 675.876 1307.12C675.936 1307.32 675.749 1307.65 675.278 1308.05Z" fill="#C5E8DF"/>
<path d="M708.275 1275.03C708.28 1274.86 708.593 1274.6 709.145 1274.15C709.118 1274.29 708.851 1274.62 708.275 1275.03Z" fill="#C5E8DF"/>
<path d="M988.313 511.788C988.044 511.887 987.542 511.753 987.039 511.222C987.385 511.069 987.733 511.313 988.313 511.788Z" fill="#C5E8DF"/>
<path d="M934.997 524.4C935.338 524.122 935.821 524.17 936.407 524.602C936.053 524.899 935.596 524.813 934.997 524.4Z" fill="#C5E8DF"/>
<path d="M806.018 594.062C806.038 594.35 805.712 594.589 805.09 594.918C805.087 594.677 805.379 594.345 806.018 594.062Z" fill="#C5E8DF"/>
<path d="M986.938 466.951C986.539 467.005 986.194 466.746 985.967 466.171C986.387 466.116 986.689 466.376 986.938 466.951Z" fill="#C5E8DF"/>
<path d="M316.73 627.919C316.884 628.182 316.775 628.55 316.341 628.955C316.167 628.669 316.317 628.346 316.73 627.919Z" fill="#C5E8DF"/>
<path d="M984.073 463.672C983.748 463.811 983.335 463.685 982.993 463.199C983.371 463.029 983.678 463.219 984.073 463.672Z" fill="#C5E8DF"/>
<path d="M994.064 456.702C993.731 456.826 993.322 456.679 992.988 456.188C993.372 456.039 993.681 456.235 994.064 456.702Z" fill="#C5E8DF"/>
<path d="M953.669 441.948C953.819 442.216 953.709 442.582 953.261 442.974C953.084 442.683 953.246 442.364 953.669 441.948Z" fill="#C5E8DF"/>
<path d="M952.841 437.222C953.162 437.101 953.61 437.257 954 437.787C953.617 437.941 953.292 437.72 952.841 437.222Z" fill="#C5E8DF"/>
<path d="M696.315 1287.06C696.211 1286.8 696.38 1286.47 696.841 1286.09C696.952 1286.35 696.769 1286.67 696.315 1287.06Z" fill="#C5E8DF"/>
<path d="M707.273 1276.04C707.207 1275.83 707.424 1275.54 707.879 1275.12C707.93 1275.32 707.743 1275.64 707.273 1276.04Z" fill="#C5E8DF"/>
<path d="M706.276 1277.05C706.208 1276.83 706.424 1276.54 706.879 1276.12C706.932 1276.32 706.746 1276.65 706.276 1277.05Z" fill="#C5E8DF"/>
<path d="M705.277 1278.05C705.208 1277.83 705.422 1277.54 705.878 1277.12C705.934 1277.32 705.747 1277.65 705.277 1278.05Z" fill="#C5E8DF"/>
<path d="M704.29 1279.05C704.209 1278.83 704.408 1278.52 704.865 1278.11C704.939 1278.33 704.755 1278.65 704.29 1279.05Z" fill="#C5E8DF"/>
<path d="M703.293 1280.06C703.208 1279.82 703.402 1279.51 703.863 1279.11C703.943 1279.34 703.757 1279.66 703.293 1280.06Z" fill="#C5E8DF"/>
<path d="M702.296 1281.06C702.209 1280.82 702.4 1280.51 702.861 1280.1C702.944 1280.34 702.759 1280.66 702.296 1281.06Z" fill="#C5E8DF"/>
<path d="M701.298 1282.06C701.209 1281.82 701.397 1281.5 701.858 1281.1C701.946 1281.34 701.76 1281.66 701.298 1282.06Z" fill="#C5E8DF"/>
<path d="M700.306 1283.06C700.211 1282.81 700.392 1282.49 700.852 1282.1C700.948 1282.34 700.765 1282.66 700.306 1283.06Z" fill="#C5E8DF"/>
<path d="M699.308 1284.06C699.209 1283.81 699.385 1283.48 699.847 1283.09C699.949 1283.35 699.766 1283.67 699.308 1284.06Z" fill="#C5E8DF"/>
<path d="M698.309 1285.06C698.21 1284.8 698.383 1284.47 698.846 1284.09C698.95 1284.35 698.767 1284.67 698.309 1285.06Z" fill="#C5E8DF"/>
<path d="M697.311 1286.06C697.21 1285.8 697.383 1285.47 697.846 1285.09C697.951 1285.35 697.768 1285.67 697.311 1286.06Z" fill="#C5E8DF"/>
<path d="M466.085 634.089C466.071 634.112 466.248 633.924 466.248 633.924C466.248 633.924 465.998 633.978 466.074 634.014C466.149 634.049 466.099 634.066 466.085 634.089Z" fill="#C5E8DF"/>
<path d="M979.165 503.796L978.961 503.62C978.961 503.62 978.929 503.89 979.025 503.868C979.122 503.846 979.165 503.796 979.165 503.796Z" fill="#C5E8DF"/>
<path d="M979.791 505.197C979.505 504.971 979.297 504.669 979.128 504.082C979.165 503.796 979.123 503.847 979.1 503.864C979.354 504.063 979.607 504.272 979.931 504.739C980.025 504.969 979.869 505.121 979.791 505.197Z" fill="#C5E8DF"/>
<path d="M98.4 53.35C93.5 50.6667 88.4833 48.45 83.35 46.7C78.3333 44.95 73.6083 44.075 69.175 44.075C63.6917 44.075 59.375 45.1833 56.225 47.4C53.075 49.6167 51.5 52.9417 51.5 57.375C51.5 60.4083 52.6667 63.15 55 65.6C57.45 67.9333 60.5417 70.0333 64.275 71.9C68.125 73.7667 72.0917 75.4583 76.175 76.975C79.9083 78.375 83.5833 80.0667 87.2 82.05C90.9333 83.9167 94.2583 86.3083 97.175 89.225C100.092 92.025 102.425 95.5833 104.175 99.9C105.925 104.1 106.8 109.292 106.8 115.475C106.8 122.008 105.108 128.075 101.725 133.675C98.3417 139.275 93.3833 143.825 86.85 147.325C80.3167 150.708 72.2667 152.4 62.7 152.4C57.8 152.4 52.7833 151.933 47.65 151C42.6333 149.95 37.675 148.433 32.775 146.45C27.875 144.35 23.15 141.725 18.6 138.575L29.8 118.8C32.8333 121.017 36.1 123 39.6 124.75C43.2167 126.383 46.8333 127.667 50.45 128.6C54.0667 129.533 57.3917 130 60.425 130C63.4583 130 66.4917 129.592 69.525 128.775C72.675 127.842 75.2417 126.325 77.225 124.225C79.325 122.125 80.375 119.208 80.375 115.475C80.375 112.908 79.5 110.575 77.75 108.475C76.1167 106.375 73.8417 104.45 70.925 102.7C68.125 100.95 65.0333 99.4333 61.65 98.15C57.6833 96.6333 53.6 94.8833 49.4 92.9C45.2 90.9167 41.2333 88.525 37.5 85.725C33.8833 82.8083 30.9083 79.25 28.575 75.05C26.3583 70.7333 25.25 65.4833 25.25 59.3C25.25 51.8333 26.8833 45.3583 30.15 39.875C33.5333 34.3917 38.2583 30.075 44.325 26.925C50.3917 23.6583 57.3917 21.85 65.325 21.5C75.7083 21.5 84.1083 22.725 90.525 25.175C97.0583 27.625 102.892 30.5417 108.025 33.925L98.4 53.35ZM134.801 40.925H159.301V74.175H177.851V93.25H159.301V151H134.801V93.25H122.901V74.175H134.801V40.925ZM228.698 153.1C221.582 153.1 215.107 151.7 209.273 148.9C203.557 145.983 199.007 141.55 195.623 135.6C192.24 129.65 190.548 122.067 190.548 112.85C190.548 104.217 192.298 96.75 195.798 90.45C199.298 84.15 203.907 79.3083 209.623 75.925C215.34 72.425 221.407 70.675 227.823 70.675C235.407 70.675 241.123 71.9583 244.973 74.525C248.94 76.975 252.207 79.7167 254.773 82.75L253.723 85.725L255.998 74.525H278.748V151H254.248V134.375L256.173 139.625C255.94 139.625 255.24 140.325 254.073 141.725C252.907 143.008 251.157 144.583 248.823 146.45C246.607 148.2 243.807 149.717 240.423 151C237.157 152.4 233.248 153.1 228.698 153.1ZM235.698 133.15C238.615 133.15 241.24 132.742 243.573 131.925C245.907 130.992 247.948 129.708 249.698 128.075C251.448 126.325 252.965 124.167 254.248 121.6V102.875C253.315 100.308 251.915 98.15 250.048 96.4C248.182 94.5333 245.965 93.1333 243.398 92.2C240.832 91.15 237.973 90.625 234.823 90.625C231.323 90.625 228.057 91.5583 225.023 93.425C222.107 95.175 219.773 97.625 218.023 100.775C216.273 103.925 215.398 107.542 215.398 111.625C215.398 115.708 216.332 119.383 218.198 122.65C220.065 125.917 222.515 128.483 225.548 130.35C228.698 132.217 232.082 133.15 235.698 133.15ZM328.669 154.675C321.785 154.675 316.01 152.575 311.344 148.375C306.677 144.058 304.227 138.517 303.994 131.75V74.525H328.494V122.65C328.727 126.033 329.602 128.775 331.119 130.875C332.635 132.858 335.202 133.85 338.819 133.85C342.435 133.85 345.527 132.625 348.094 130.175C350.777 127.725 352.819 124.4 354.219 120.2C355.735 115.883 356.494 111.042 356.494 105.675V74.525H380.994V151H358.769L356.844 137L357.194 138.575C355.444 141.725 353.227 144.525 350.544 146.975C347.86 149.425 344.652 151.292 340.919 152.575C337.302 153.975 333.219 154.675 328.669 154.675ZM456.416 153.1C449.999 153.1 444.574 152.05 440.141 149.95C435.824 147.733 432.032 144.875 428.766 141.375L430.691 136.125V151H406.191V12.925H430.516V87.65V79.775C433.549 77.2083 437.574 75.05 442.591 73.3C447.607 71.55 453.324 70.675 459.741 70.675C466.391 70.675 472.457 72.25 477.941 75.4C483.424 78.55 487.799 83.1583 491.066 89.225C494.449 95.175 496.141 102.467 496.141 111.1C496.141 119.733 494.274 127.2 490.541 133.5C486.924 139.8 482.082 144.642 476.016 148.025C469.949 151.408 463.416 153.1 456.416 153.1ZM450.991 132.45C454.607 132.45 457.932 131.517 460.966 129.65C464.116 127.783 466.624 125.217 468.491 121.95C470.357 118.683 471.291 115.008 471.291 110.925C471.291 106.842 470.357 103.225 468.491 100.075C466.624 96.925 464.116 94.475 460.966 92.725C457.932 90.8583 454.607 89.925 450.991 89.925C447.841 89.925 444.866 90.45 442.066 91.5C439.382 92.4333 437.049 93.8333 435.066 95.7C433.199 97.45 431.741 99.6083 430.691 102.175V120.9C432.091 123.467 433.724 125.625 435.591 127.375C437.574 129.008 439.849 130.292 442.416 131.225C444.982 132.042 447.841 132.45 450.991 132.45ZM553.02 153.1C543.687 153.1 535.753 151.35 529.22 147.85C522.803 144.35 517.903 139.508 514.52 133.325C511.137 127.142 509.445 120.025 509.445 111.975C509.445 104.275 511.428 97.3333 515.395 91.15C519.362 84.9667 524.67 80.0667 531.32 76.45C537.97 72.7167 545.378 70.85 553.545 70.85C564.512 70.85 573.495 74.0583 580.495 80.475C587.612 86.775 592.22 95.9333 594.32 107.95L534.82 126.85L529.395 113.55L572.445 99.025L567.37 101.3C566.437 98.2667 564.745 95.6417 562.295 93.425C559.962 91.0917 556.403 89.925 551.62 89.925C548.003 89.925 544.795 90.8 541.995 92.55C539.312 94.1833 537.212 96.575 535.695 99.725C534.295 102.758 533.595 106.375 533.595 110.575C533.595 115.358 534.47 119.383 536.22 122.65C537.97 125.8 540.362 128.192 543.395 129.825C546.428 131.458 549.812 132.275 553.545 132.275C556.228 132.275 558.795 131.808 561.245 130.875C563.812 129.942 566.32 128.717 568.77 127.2L579.62 145.4C575.537 147.733 571.103 149.6 566.32 151C561.653 152.4 557.22 153.1 553.02 153.1ZM634.173 74.525L636.448 95.525L635.923 92.375C638.14 87.825 641.173 83.975 645.023 80.825C648.873 77.5583 652.665 75.05 656.398 73.3C660.248 71.55 663.165 70.675 665.148 70.675L663.923 95.175C658.207 94.475 653.307 95.4083 649.223 97.975C645.14 100.542 641.99 103.925 639.773 108.125C637.557 112.325 636.448 116.642 636.448 121.075V151H612.123V74.525H634.173ZM29.625 311V176.95H29.8L101.375 278.45L90.525 276L161.925 176.95H162.275V311H136.9V234.175L138.475 247.3L94.9 309.25H94.55L49.75 247.3L54.125 235.225V311H29.625ZM191.542 234.525H216.042V311H191.542V234.525ZM191.017 207.4C191.017 203.783 192.417 200.808 195.217 198.475C198.134 196.142 201.226 194.975 204.492 194.975C207.759 194.975 210.734 196.142 213.417 198.475C216.217 200.808 217.617 203.783 217.617 207.4C217.617 211.017 216.217 213.992 213.417 216.325C210.734 218.542 207.759 219.65 204.492 219.65C201.226 219.65 198.134 218.542 195.217 216.325C192.417 213.992 191.017 211.017 191.017 207.4ZM263.499 234.525L265.424 248.175L265.074 246.95C267.757 242.167 271.549 238.317 276.449 235.4C281.349 232.367 287.357 230.85 294.474 230.85C301.707 230.85 307.715 233.008 312.499 237.325C317.399 241.525 319.907 247.008 320.024 253.775V311H295.524V262.875C295.407 259.492 294.474 256.808 292.724 254.825C291.09 252.725 288.29 251.675 284.324 251.675C280.59 251.675 277.324 252.9 274.524 255.35C271.724 257.8 269.565 261.125 268.049 265.325C266.532 269.525 265.774 274.367 265.774 279.85V311H241.274V234.525H263.499ZM367.405 234.525L369.33 248.175L368.98 246.95C371.663 242.167 375.455 238.317 380.355 235.4C385.255 232.367 391.263 230.85 398.38 230.85C405.613 230.85 411.622 233.008 416.405 237.325C421.305 241.525 423.813 247.008 423.93 253.775V311H399.43V262.875C399.313 259.492 398.38 256.808 396.63 254.825C394.997 252.725 392.197 251.675 388.23 251.675C384.497 251.675 381.23 252.9 378.43 255.35C375.63 257.8 373.472 261.125 371.955 265.325C370.438 269.525 369.68 274.367 369.68 279.85V311H345.18V234.525H367.405ZM486.711 313.1C477.378 313.1 469.445 311.35 462.911 307.85C456.495 304.35 451.595 299.508 448.211 293.325C444.828 287.142 443.136 280.025 443.136 271.975C443.136 264.275 445.12 257.333 449.086 251.15C453.053 244.967 458.361 240.067 465.011 236.45C471.661 232.717 479.07 230.85 487.236 230.85C498.203 230.85 507.186 234.058 514.186 240.475C521.303 246.775 525.911 255.933 528.011 267.95L468.511 286.85L463.086 273.55L506.136 259.025L501.061 261.3C500.128 258.267 498.436 255.642 495.986 253.425C493.653 251.092 490.095 249.925 485.311 249.925C481.695 249.925 478.486 250.8 475.686 252.55C473.003 254.183 470.903 256.575 469.386 259.725C467.986 262.758 467.286 266.375 467.286 270.575C467.286 275.358 468.161 279.383 469.911 282.65C471.661 285.8 474.053 288.192 477.086 289.825C480.12 291.458 483.503 292.275 487.236 292.275C489.92 292.275 492.486 291.808 494.936 290.875C497.503 289.942 500.011 288.717 502.461 287.2L513.311 305.4C509.228 307.733 504.795 309.6 500.011 311C495.345 312.4 490.911 313.1 486.711 313.1ZM570.665 312.575C564.365 312.575 558.473 311.467 552.99 309.25C547.623 307.033 543.073 303.942 539.34 299.975L549.49 286.5C553.223 289.883 556.665 292.333 559.815 293.85C563.082 295.25 565.998 295.95 568.565 295.95C570.548 295.95 572.298 295.775 573.815 295.425C575.448 294.958 576.732 294.317 577.665 293.5C578.598 292.567 579.065 291.4 579.065 290C579.065 288.017 578.248 286.442 576.615 285.275C575.098 284.108 573.115 283.175 570.665 282.475C568.215 281.658 565.59 280.842 562.79 280.025C555.79 277.808 550.715 274.6 547.565 270.4C544.532 266.083 543.015 261.417 543.015 256.4C543.015 252.55 544.007 248.7 545.99 244.85C548.09 240.883 551.357 237.617 555.79 235.05C560.34 232.367 566.173 231.025 573.29 231.025C579.707 231.025 585.132 231.667 589.565 232.95C593.998 234.233 598.198 236.333 602.165 239.25L592.89 253.6C590.673 251.85 588.165 250.392 585.365 249.225C582.682 247.942 580.173 247.242 577.84 247.125C575.74 247.008 573.932 247.242 572.415 247.825C571.015 248.408 569.907 249.167 569.09 250.1C568.273 251.033 567.865 252.025 567.865 253.075C567.748 255.292 568.565 257.042 570.315 258.325C572.182 259.608 574.515 260.6 577.315 261.3C580.115 262 582.857 262.817 585.54 263.75C589.273 264.917 592.482 266.492 595.165 268.475C597.848 270.458 599.89 272.85 601.29 275.65C602.807 278.333 603.565 281.6 603.565 285.45C603.565 290.117 602.34 294.55 599.89 298.75C597.557 302.833 593.94 306.158 589.04 308.725C584.257 311.292 578.132 312.575 570.665 312.575ZM618.136 271.8C618.136 263.983 619.945 256.983 623.561 250.8C627.295 244.617 632.486 239.775 639.136 236.275C645.786 232.658 653.428 230.85 662.061 230.85C670.811 230.85 678.395 232.658 684.811 236.275C691.228 239.775 696.128 244.617 699.511 250.8C703.011 256.983 704.761 263.983 704.761 271.8C704.761 279.617 703.011 286.675 699.511 292.975C696.128 299.158 691.228 304.058 684.811 307.675C678.395 311.292 670.695 313.1 661.711 313.1C653.311 313.1 645.786 311.467 639.136 308.2C632.603 304.933 627.47 300.208 623.736 294.025C620.003 287.842 618.136 280.433 618.136 271.8ZM642.811 271.975C642.811 275.942 643.628 279.558 645.261 282.825C646.895 285.975 649.111 288.483 651.911 290.35C654.711 292.217 657.861 293.15 661.361 293.15C665.211 293.15 668.536 292.217 671.336 290.35C674.136 288.483 676.295 285.975 677.811 282.825C679.328 279.558 680.086 275.942 680.086 271.975C680.086 267.892 679.328 264.275 677.811 261.125C676.295 257.975 674.136 255.467 671.336 253.6C668.536 251.733 665.211 250.8 661.361 250.8C657.861 250.8 654.711 251.733 651.911 253.6C649.111 255.467 646.895 257.975 645.261 261.125C643.628 264.275 642.811 267.892 642.811 271.975ZM731.237 200.925H755.737V234.175H774.287V253.25H755.737V311H731.237V253.25H719.337V234.175H731.237V200.925ZM825.134 313.1C818.017 313.1 811.542 311.7 805.709 308.9C799.992 305.983 795.442 301.55 792.059 295.6C788.676 289.65 786.984 282.067 786.984 272.85C786.984 264.217 788.734 256.75 792.234 250.45C795.734 244.15 800.342 239.308 806.059 235.925C811.776 232.425 817.842 230.675 824.259 230.675C831.842 230.675 837.559 231.958 841.409 234.525C845.376 236.975 848.642 239.717 851.209 242.75L850.159 245.725L852.434 234.525H875.184V311H850.684V294.375L852.609 299.625C852.376 299.625 851.676 300.325 850.509 301.725C849.342 303.008 847.592 304.583 845.259 306.45C843.042 308.2 840.242 309.717 836.859 311C833.592 312.4 829.684 313.1 825.134 313.1ZM832.134 293.15C835.051 293.15 837.676 292.742 840.009 291.925C842.342 290.992 844.384 289.708 846.134 288.075C847.884 286.325 849.401 284.167 850.684 281.6V262.875C849.751 260.308 848.351 258.15 846.484 256.4C844.617 254.533 842.401 253.133 839.834 252.2C837.267 251.15 834.409 250.625 831.259 250.625C827.759 250.625 824.492 251.558 821.459 253.425C818.542 255.175 816.209 257.625 814.459 260.775C812.709 263.925 811.834 267.542 811.834 271.625C811.834 275.708 812.767 279.383 814.634 282.65C816.501 285.917 818.951 288.483 821.984 290.35C825.134 292.217 828.517 293.15 832.134 293.15Z" fill="#69BEE1"/>
<path d="M68.7193 349.2C76.7693 349.2 83.9443 350.25 90.2443 352.35C96.5443 354.333 101.794 357.25 105.994 361.1C110.311 364.833 113.578 369.383 115.794 374.75C118.011 380 119.119 385.95 119.119 392.6C119.119 397.85 118.303 403.1 116.669 408.35C115.153 413.6 112.586 418.383 108.969 422.7C105.469 427.017 100.803 430.517 94.9693 433.2C89.136 435.767 81.9027 437.05 73.2693 437.05H55.0693V478H29.6943V349.2H68.7193ZM73.0943 412.55C76.9443 412.55 80.1527 411.908 82.7193 410.625C85.286 409.342 87.2693 407.708 88.6693 405.725C90.186 403.742 91.236 401.7 91.8193 399.6C92.5193 397.383 92.8693 395.342 92.8693 393.475C92.8693 392.075 92.636 390.325 92.1693 388.225C91.8193 386.008 91.0027 383.792 89.7193 381.575C88.436 379.358 86.4527 377.492 83.7693 375.975C81.2027 374.458 77.7027 373.7 73.2693 373.7H55.0693V412.55H73.0943ZM96.8943 428.3L128.744 478H99.1693L66.6193 429L96.8943 428.3ZM179.847 480.1C170.514 480.1 162.58 478.35 156.047 474.85C149.63 471.35 144.73 466.508 141.347 460.325C137.964 454.142 136.272 447.025 136.272 438.975C136.272 431.275 138.255 424.333 142.222 418.15C146.189 411.967 151.497 407.067 158.147 403.45C164.797 399.717 172.205 397.85 180.372 397.85C191.339 397.85 200.322 401.058 207.322 407.475C214.439 413.775 219.047 422.933 221.147 434.95L161.647 453.85L156.222 440.55L199.272 426.025L194.197 428.3C193.264 425.267 191.572 422.642 189.122 420.425C186.789 418.092 183.23 416.925 178.447 416.925C174.83 416.925 171.622 417.8 168.822 419.55C166.139 421.183 164.039 423.575 162.522 426.725C161.122 429.758 160.422 433.375 160.422 437.575C160.422 442.358 161.297 446.383 163.047 449.65C164.797 452.8 167.189 455.192 170.222 456.825C173.255 458.458 176.639 459.275 180.372 459.275C183.055 459.275 185.622 458.808 188.072 457.875C190.639 456.942 193.147 455.717 195.597 454.2L206.447 472.4C202.364 474.733 197.93 476.6 193.147 478C188.48 479.4 184.047 480.1 179.847 480.1ZM271.151 480.1C264.034 480.1 257.559 478.7 251.726 475.9C246.009 472.983 241.459 468.55 238.076 462.6C234.692 456.65 233.001 449.067 233.001 439.85C233.001 431.217 234.751 423.75 238.251 417.45C241.751 411.15 246.359 406.308 252.076 402.925C257.792 399.425 263.859 397.675 270.276 397.675C277.859 397.675 283.576 398.958 287.426 401.525C291.392 403.975 294.659 406.717 297.226 409.75L296.176 412.725L298.451 401.525H321.201V478H296.701V461.375L298.626 466.625C298.392 466.625 297.692 467.325 296.526 468.725C295.359 470.008 293.609 471.583 291.276 473.45C289.059 475.2 286.259 476.717 282.876 478C279.609 479.4 275.701 480.1 271.151 480.1ZM278.151 460.15C281.067 460.15 283.692 459.742 286.026 458.925C288.359 457.992 290.401 456.708 292.151 455.075C293.901 453.325 295.417 451.167 296.701 448.6V429.875C295.767 427.308 294.367 425.15 292.501 423.4C290.634 421.533 288.417 420.133 285.851 419.2C283.284 418.15 280.426 417.625 277.276 417.625C273.776 417.625 270.509 418.558 267.476 420.425C264.559 422.175 262.226 424.625 260.476 427.775C258.726 430.925 257.851 434.542 257.851 438.625C257.851 442.708 258.784 446.383 260.651 449.65C262.517 452.917 264.967 455.483 268.001 457.35C271.151 459.217 274.534 460.15 278.151 460.15ZM346.446 339.925H370.946V478H346.446V339.925ZM403.352 367.925H427.852V401.175H446.402V420.25H427.852V478H403.352V420.25H391.452V401.175H403.352V367.925ZM471.174 514.75L522.099 401.525H544.149L494.799 514.75H471.174ZM491.649 478.35L454.199 401.525H481.674L510.549 466.1L491.649 478.35Z" fill="#69BEE1"/>
<path d="M110.011 1510.2H196.811V1534.7H165.486V1639H140.111V1534.7H110.011V1510.2ZM217.275 1639V1500.92H241.25V1577.92L241.075 1574.95C243.759 1570.17 247.55 1566.32 252.45 1563.4C257.35 1560.37 263.359 1558.85 270.475 1558.85C277.709 1558.85 283.717 1561.01 288.5 1565.32C293.4 1569.52 295.909 1575.01 296.025 1581.77V1639H271.525V1590.87C271.409 1587.49 270.475 1584.81 268.725 1582.82C267.092 1580.72 264.292 1579.67 260.325 1579.67C256.592 1579.67 253.325 1580.9 250.525 1583.35C247.725 1585.8 245.567 1589.12 244.05 1593.32C242.534 1597.52 241.775 1602.37 241.775 1607.85V1639H217.275ZM321.182 1562.52H345.682V1639H321.182V1562.52ZM320.657 1535.4C320.657 1531.78 322.057 1528.81 324.857 1526.47C327.773 1524.14 330.865 1522.97 334.132 1522.97C337.398 1522.97 340.373 1524.14 343.057 1526.47C345.857 1528.81 347.257 1531.78 347.257 1535.4C347.257 1539.02 345.857 1541.99 343.057 1544.32C340.373 1546.54 337.398 1547.65 334.132 1547.65C330.865 1547.65 327.773 1546.54 324.857 1544.32C322.057 1541.99 320.657 1539.02 320.657 1535.4ZM395.763 1640.58C389.463 1640.58 383.571 1639.47 378.088 1637.25C372.721 1635.03 368.171 1631.94 364.438 1627.97L374.588 1614.5C378.321 1617.88 381.763 1620.33 384.913 1621.85C388.18 1623.25 391.096 1623.95 393.663 1623.95C395.646 1623.95 397.396 1623.77 398.913 1623.42C400.546 1622.96 401.83 1622.32 402.763 1621.5C403.696 1620.57 404.163 1619.4 404.163 1618C404.163 1616.02 403.346 1614.44 401.713 1613.28C400.196 1612.11 398.213 1611.17 395.763 1610.47C393.313 1609.66 390.688 1608.84 387.888 1608.02C380.888 1605.81 375.813 1602.6 372.663 1598.4C369.63 1594.08 368.113 1589.42 368.113 1584.4C368.113 1580.55 369.105 1576.7 371.088 1572.85C373.188 1568.88 376.455 1565.62 380.888 1563.05C385.438 1560.37 391.271 1559.02 398.388 1559.02C404.805 1559.02 410.23 1559.67 414.663 1560.95C419.096 1562.23 423.296 1564.33 427.263 1567.25L417.988 1581.6C415.771 1579.85 413.263 1578.39 410.463 1577.22C407.78 1575.94 405.271 1575.24 402.938 1575.12C400.838 1575.01 399.03 1575.24 397.513 1575.82C396.113 1576.41 395.005 1577.17 394.188 1578.1C393.371 1579.03 392.963 1580.02 392.963 1581.07C392.846 1583.29 393.663 1585.04 395.413 1586.32C397.28 1587.61 399.613 1588.6 402.413 1589.3C405.213 1590 407.955 1590.82 410.638 1591.75C414.371 1592.92 417.58 1594.49 420.263 1596.47C422.946 1598.46 424.988 1600.85 426.388 1603.65C427.905 1606.33 428.663 1609.6 428.663 1613.45C428.663 1618.12 427.438 1622.55 424.988 1626.75C422.655 1630.83 419.038 1634.16 414.138 1636.72C409.355 1639.29 403.23 1640.58 395.763 1640.58ZM506.094 1562.52H530.594V1639H506.094V1562.52ZM505.569 1535.4C505.569 1531.78 506.969 1528.81 509.769 1526.47C512.685 1524.14 515.777 1522.97 519.044 1522.97C522.31 1522.97 525.285 1524.14 527.969 1526.47C530.769 1528.81 532.169 1531.78 532.169 1535.4C532.169 1539.02 530.769 1541.99 527.969 1544.32C525.285 1546.54 522.31 1547.65 519.044 1547.65C515.777 1547.65 512.685 1546.54 509.769 1544.32C506.969 1541.99 505.569 1539.02 505.569 1535.4ZM580.675 1640.58C574.375 1640.58 568.483 1639.47 563 1637.25C557.633 1635.03 553.083 1631.94 549.35 1627.97L559.5 1614.5C563.233 1617.88 566.675 1620.33 569.825 1621.85C573.092 1623.25 576.008 1623.95 578.575 1623.95C580.558 1623.95 582.308 1623.77 583.825 1623.42C585.458 1622.96 586.742 1622.32 587.675 1621.5C588.608 1620.57 589.075 1619.4 589.075 1618C589.075 1616.02 588.258 1614.44 586.625 1613.28C585.108 1612.11 583.125 1611.17 580.675 1610.47C578.225 1609.66 575.6 1608.84 572.8 1608.02C565.8 1605.81 560.725 1602.6 557.575 1598.4C554.542 1594.08 553.025 1589.42 553.025 1584.4C553.025 1580.55 554.017 1576.7 556 1572.85C558.1 1568.88 561.367 1565.62 565.8 1563.05C570.35 1560.37 576.183 1559.02 583.3 1559.02C589.717 1559.02 595.142 1559.67 599.575 1560.95C604.008 1562.23 608.208 1564.33 612.175 1567.25L602.9 1581.6C600.683 1579.85 598.175 1578.39 595.375 1577.22C592.692 1575.94 590.183 1575.24 587.85 1575.12C585.75 1575.01 583.942 1575.24 582.425 1575.82C581.025 1576.41 579.917 1577.17 579.1 1578.1C578.283 1579.03 577.875 1580.02 577.875 1581.07C577.758 1583.29 578.575 1585.04 580.325 1586.32C582.192 1587.61 584.525 1588.6 587.325 1589.3C590.125 1590 592.867 1590.82 595.55 1591.75C599.283 1592.92 602.492 1594.49 605.175 1596.47C607.858 1598.46 609.9 1600.85 611.3 1603.65C612.817 1606.33 613.575 1609.6 613.575 1613.45C613.575 1618.12 612.35 1622.55 609.9 1626.75C607.567 1630.83 603.95 1634.16 599.05 1636.72C594.267 1639.29 588.142 1640.58 580.675 1640.58ZM715.856 1640.58C709.556 1640.58 703.664 1639.47 698.181 1637.25C692.814 1635.03 688.264 1631.94 684.531 1627.97L694.681 1614.5C698.414 1617.88 701.856 1620.33 705.006 1621.85C708.272 1623.25 711.189 1623.95 713.756 1623.95C715.739 1623.95 717.489 1623.77 719.006 1623.42C720.639 1622.96 721.922 1622.32 722.856 1621.5C723.789 1620.57 724.256 1619.4 724.256 1618C724.256 1616.02 723.439 1614.44 721.806 1613.28C720.289 1612.11 718.306 1611.17 715.856 1610.47C713.406 1609.66 710.781 1608.84 707.981 1608.02C700.981 1605.81 695.906 1602.6 692.756 1598.4C689.722 1594.08 688.206 1589.42 688.206 1584.4C688.206 1580.55 689.197 1576.7 691.181 1572.85C693.281 1568.88 696.547 1565.62 700.981 1563.05C705.531 1560.37 711.364 1559.02 718.481 1559.02C724.897 1559.02 730.322 1559.67 734.756 1560.95C739.189 1562.23 743.389 1564.33 747.356 1567.25L738.081 1581.6C735.864 1579.85 733.356 1578.39 730.556 1577.22C727.872 1575.94 725.364 1575.24 723.031 1575.12C720.931 1575.01 719.122 1575.24 717.606 1575.82C716.206 1576.41 715.097 1577.17 714.281 1578.1C713.464 1579.03 713.056 1580.02 713.056 1581.07C712.939 1583.29 713.756 1585.04 715.506 1586.32C717.372 1587.61 719.706 1588.6 722.506 1589.3C725.306 1590 728.047 1590.82 730.731 1591.75C734.464 1592.92 737.672 1594.49 740.356 1596.47C743.039 1598.46 745.081 1600.85 746.481 1603.65C747.997 1606.33 748.756 1609.6 748.756 1613.45C748.756 1618.12 747.531 1622.55 745.081 1626.75C742.747 1630.83 739.131 1634.16 734.231 1636.72C729.447 1639.29 723.322 1640.58 715.856 1640.58ZM801.477 1641.1C794.361 1641.1 787.886 1639.7 782.052 1636.9C776.336 1633.98 771.786 1629.55 768.402 1623.6C765.019 1617.65 763.327 1610.07 763.327 1600.85C763.327 1592.22 765.077 1584.75 768.577 1578.45C772.077 1572.15 776.686 1567.31 782.402 1563.92C788.119 1560.42 794.186 1558.67 800.602 1558.67C808.186 1558.67 813.902 1559.96 817.752 1562.52C821.719 1564.97 824.986 1567.72 827.552 1570.75L826.502 1573.72L828.777 1562.52H851.527V1639H827.027V1622.37L828.952 1627.62C828.719 1627.62 828.019 1628.32 826.852 1629.72C825.686 1631.01 823.936 1632.58 821.602 1634.45C819.386 1636.2 816.586 1637.72 813.202 1639C809.936 1640.4 806.027 1641.1 801.477 1641.1ZM808.477 1621.15C811.394 1621.15 814.019 1620.74 816.352 1619.92C818.686 1618.99 820.727 1617.71 822.477 1616.07C824.227 1614.32 825.744 1612.17 827.027 1609.6V1590.87C826.094 1588.31 824.694 1586.15 822.827 1584.4C820.961 1582.53 818.744 1581.13 816.177 1580.2C813.611 1579.15 810.752 1578.62 807.602 1578.62C804.102 1578.62 800.836 1579.56 797.802 1581.42C794.886 1583.17 792.552 1585.62 790.802 1588.77C789.052 1591.92 788.177 1595.54 788.177 1599.62C788.177 1603.71 789.111 1607.38 790.977 1610.65C792.844 1613.92 795.294 1616.48 798.327 1618.35C801.477 1620.22 804.861 1621.15 808.477 1621.15ZM883.947 1528.92H908.447V1562.17H926.997V1581.25H908.447V1639H883.947V1581.25H872.047V1562.17H883.947V1528.92ZM945.644 1562.52H970.144V1639H945.644V1562.52ZM945.119 1535.4C945.119 1531.78 946.519 1528.81 949.319 1526.47C952.236 1524.14 955.328 1522.97 958.594 1522.97C961.861 1522.97 964.836 1524.14 967.519 1526.47C970.319 1528.81 971.719 1531.78 971.719 1535.4C971.719 1539.02 970.319 1541.99 967.519 1544.32C964.836 1546.54 961.861 1547.65 958.594 1547.65C955.328 1547.65 952.236 1546.54 949.319 1544.32C946.519 1541.99 945.119 1539.02 945.119 1535.4ZM1017.43 1562.52L1019.7 1583.52L1019.18 1580.37C1021.39 1575.82 1024.43 1571.97 1028.28 1568.82C1032.13 1565.56 1035.92 1563.05 1039.65 1561.3C1043.5 1559.55 1046.42 1558.67 1048.4 1558.67L1047.18 1583.17C1041.46 1582.47 1036.56 1583.41 1032.48 1585.97C1028.39 1588.54 1025.24 1591.92 1023.03 1596.12C1020.81 1600.32 1019.7 1604.64 1019.7 1609.07V1639H995.376V1562.52H1017.43ZM1101.36 1641.1C1092.03 1641.1 1084.09 1639.35 1077.56 1635.85C1071.14 1632.35 1066.24 1627.51 1062.86 1621.32C1059.48 1615.14 1057.79 1608.02 1057.79 1599.97C1057.79 1592.27 1059.77 1585.33 1063.74 1579.15C1067.7 1572.97 1073.01 1568.07 1079.66 1564.45C1086.31 1560.72 1093.72 1558.85 1101.89 1558.85C1112.85 1558.85 1121.84 1562.06 1128.84 1568.47C1135.95 1574.77 1140.56 1583.93 1142.66 1595.95L1083.16 1614.85L1077.74 1601.55L1120.79 1587.02L1115.71 1589.3C1114.78 1586.27 1113.09 1583.64 1110.64 1581.42C1108.3 1579.09 1104.74 1577.92 1099.96 1577.92C1096.34 1577.92 1093.14 1578.8 1090.34 1580.55C1087.65 1582.18 1085.55 1584.57 1084.04 1587.72C1082.64 1590.76 1081.94 1594.37 1081.94 1598.57C1081.94 1603.36 1082.81 1607.38 1084.56 1610.65C1086.31 1613.8 1088.7 1616.19 1091.74 1617.82C1094.77 1619.46 1098.15 1620.27 1101.89 1620.27C1104.57 1620.27 1107.14 1619.81 1109.59 1618.87C1112.15 1617.94 1114.66 1616.72 1117.11 1615.2L1127.96 1633.4C1123.88 1635.73 1119.44 1637.6 1114.66 1639C1109.99 1640.4 1105.56 1641.1 1101.36 1641.1Z" fill="#69BEE1"/>
</g>
<defs>
<clipPath id="clip0_173_164">
<rect width="1228" height="1639" fill="white"/>
</clipPath>
</defs>
</svg>
